<?xml version="1.0" encoding="UTF-8"?><!DOCTYPE svg PUBLIC "-//W3C//DTD SVG 1.1//EN" "http://www.w3.org/Graphics/SVG/1.1/DTD/svg11.dtd"><svg xmlns="http://www.w3.org/2000/svg" xmlns:xlink="http://www.w3.org/1999/xlink"><defs/><symbol id="icon-add-16"><path fill-rule="evenodd" clip-rule="evenodd" d="M4.5 2A2.5 2.5 0 002 4.5v6A2.5 2.5 0 004.5 13h6a2.5 2.5 0 002.5-2.5v-6A2.5 2.5 0 0010.5 2h-6zM3 4.5A1.5 1.5 0 014.5 3h6A1.5 1.5 0 0112 4.5v6a1.5 1.5 0 01-1.5 1.5h-6A1.5 1.5 0 013 10.5v-6zm5 1a.5.5 0 00-1 0V7H5.5a.5.5 0 000 1H7v1.5a.5.5 0 001 0V8h1.5a.5.5 0 000-1H8V5.5z"/></symbol><symbol id="icon-add-24"><path fill-rule="evenodd" clip-rule="evenodd" d="M8 3a5 5 0 00-5 5v8a5 5 0 005 5h8a5 5 0 005-5V8a5 5 0 00-5-5H8zM5 8a3 3 0 013-3h8a3 3 0 013 3v8a3 3 0 01-3 3H8a3 3 0 01-3-3V8zm8 1a1 1 0 10-2 0v2H9a1 1 0 100 2h2v2a1 1 0 102 0v-2h2a1 1 0 100-2h-2V9z"/></symbol><symbol id="icon-add-filled-24"><path fill-rule="evenodd" clip-rule="evenodd" d="M8 4h8a4 4 0 014 4v8a4 4 0 01-4 4H8a4 4 0 01-4-4V8a4 4 0 014-4zm5 5a1 1 0 10-2 0v2H9a1 1 0 100 2h2v2a1 1 0 102 0v-2h2a1 1 0 100-2h-2V9z"/></symbol><symbol id="icon-addperson-16"><path fill-rule="evenodd" clip-rule="evenodd" d="M4.5 4.5c0-.458.151-.828.394-1.08C5.134 3.17 5.499 3 6 3c.5 0 .866.17 1.106.42.243.252.394.622.394 1.08 0 .458-.151.828-.394 1.08C6.866 5.83 6.501 6 6 6c-.5 0-.866-.17-1.106-.42-.243-.252-.394-.622-.394-1.08zm3.22 1.878c.036-.034.072-.068.106-.104.446-.463.674-1.093.674-1.774 0-.68-.228-1.311-.674-1.774C7.377 2.26 6.742 2 6 2s-1.377.26-1.826.726C3.728 3.189 3.5 3.819 3.5 4.5c0 .68.228 1.311.674 1.774.034.036.07.07.107.104A5.4 5.4 0 002.54 7.63C1.621 8.614 1 9.967 1 11.437c0 .449.133.856.397 1.205.259.342.626.602 1.06.798.859.387 2.068.56 3.543.56s2.684-.173 3.543-.56c.434-.196.8-.456 1.06-.798.264-.349.397-.756.397-1.204 0-1.47-.621-2.824-1.541-3.807a5.4 5.4 0 00-1.74-1.253zM6 7c-.958 0-1.958.49-2.729 1.314C2.504 9.134 2 10.25 2 11.437c0 .24.067.434.194.6.131.174.346.344.674.491.667.3 1.707.472 3.132.472s2.465-.171 3.132-.472c.328-.147.543-.317.674-.49a.955.955 0 00.194-.6c0-1.188-.504-2.304-1.271-3.124C7.958 7.49 6.958 7 6 7zm6.5-4a.5.5 0 01.5.5V5h1.5a.5.5 0 010 1H13v1.5a.5.5 0 01-1 0V6h-1.5a.5.5 0 010-1H12V3.5a.5.5 0 01.5-.5z"/></symbol><symbol id="icon-addperson-24"><path fill-rule="evenodd" clip-rule="evenodd" d="M9 5a2 2 0 100 4 2 2 0 000-4zm4 2a3.987 3.987 0 01-1.12 2.777c.74.408 1.416.96 1.993 1.61A8.485 8.485 0 0116 17c0 .688-.187 1.328-.572 1.883-.38.546-.915.959-1.537 1.264-1.22.6-2.901.853-4.891.853-1.99 0-3.671-.253-4.891-.853-.622-.305-1.157-.718-1.536-1.264A3.244 3.244 0 012 17c0-2.192.85-4.175 2.127-5.614a7.607 7.607 0 011.994-1.61A4 4 0 1113 7zm-7.377 5.714C6.603 11.61 7.847 11 9 11c1.153 0 2.397.61 3.377 1.714A6.485 6.485 0 0114 17c0 .312-.08.547-.215.742-.142.204-.382.416-.777.61-.813.4-2.132.648-4.008.648s-3.195-.247-4.008-.647c-.395-.195-.635-.407-.777-.611A1.248 1.248 0 014 17c0-1.674.65-3.19 1.623-4.286zM19 7a1 1 0 10-2 0v1h-1a1 1 0 100 2h1v1a1 1 0 102 0v-1h1a1 1 0 100-2h-1V7z"/></symbol><symbol id="icon-alert-16"><path fill-rule="evenodd" clip-rule="evenodd" d="M7.214 3.492a.874.874 0 011.572 0l.003.005 4.122 8.248A.875.875 0 0112.124 13H3.876a.875.875 0 01-.787-1.255L7.21 3.497l.003-.005zm-.898-.44C7 1.65 9 1.65 9.684 3.052l4.123 8.248.002.005A1.875 1.875 0 0112.124 14H3.876a1.875 1.875 0 01-1.685-2.695l.002-.005 4.123-8.248zM8 10a.5.5 0 00.5-.5V7a.5.5 0 00-1 0v2.5a.5.5 0 00.5.5zm.5 1.5a.5.5 0 10-1 0 .5.5 0 001 0z"/></symbol><symbol id="icon-alert-24"><path fill-rule="evenodd" clip-rule="evenodd" d="M12.896 5.561a1 1 0 00-1.797 0l-.005.01L5.1 17.566a1 1 0 00.9 1.434h11.997a1 1 0 00.9-1.433L12.901 5.57l-.005-.01zm1.796-.88c-1.096-2.243-4.293-2.243-5.39 0L3.308 16.678l-.005.01C2.333 18.68 3.783 21 6 21h11.997c2.216 0 3.666-2.32 2.697-4.312l-.005-.01-5.996-11.997zM12 14a1 1 0 001-1v-3a1 1 0 10-2 0v3a1 1 0 001 1zm0 1a1 1 0 110 2 1 1 0 010-2z"/></symbol><symbol id="icon-alert-filled-16"><path fill-rule="evenodd" clip-rule="evenodd" d="M6.652 2.844l-4.499 9A1.5 1.5 0 003.501 14H12.5a1.5 1.5 0 001.348-2.156l-4.499-9c-.547-1.125-2.15-1.125-2.696 0zM8 10a.5.5 0 00.5-.5V7a.5.5 0 00-1 0v2.5a.5.5 0 00.5.5zm0 1a.5.5 0 110 1 .5.5 0 010-1z"/></symbol><symbol id="icon-alert-filled-24"><path fill-rule="evenodd" clip-rule="evenodd" d="M9.974 4.264l-6.747 13.5C2.5 19.26 3.588 21 5.249 21h13.495c1.661 0 2.75-1.74 2.023-3.234l-6.748-13.5c-.82-1.688-3.224-1.688-4.045 0zM12 15a1 1 0 01-1-1V9a1 1 0 112 0v5a1 1 0 01-1 1zm0 1a1 1 0 110 2 1 1 0 010-2z"/></symbol><symbol id="icon-angledarrow-16"><path fill-rule="evenodd" clip-rule="evenodd" d="M6.646 7.354a.5.5 0 10.708-.708L3.707 3H6.5a.5.5 0 000-1h-4a.5.5 0 00-.5.5v4a.5.5 0 001 0V3.707l3.646 3.647zm2.708 1.292a.5.5 0 10-.708.708L12.293 13H9.5a.5.5 0 000 1h4a.5.5 0 00.5-.5v-4a.5.5 0 00-1 0v2.793L9.354 8.646z"/></symbol><symbol id="icon-angledarrow-24"><path fill-rule="evenodd" clip-rule="evenodd" d="M9.293 10.707a1 1 0 001.414-1.414L6.414 5H8a1 1 0 100-2H4a1 1 0 00-1 1v4a1 1 0 002 0V6.414l4.293 4.293zm5.414 2.586a1 1 0 00-1.414 1.414L17.586 19H16a1 1 0 100 2h4a1 1 0 001-1v-4a1 1 0 10-2 0v1.586l-4.293-4.293z"/></symbol><symbol id="icon-arrow-16"><path fill-rule="evenodd" clip-rule="evenodd" d="M6.146 4.146a.5.5 0 01.708 0l3.5 3.5a.5.5 0 010 .708l-3.5 3.5a.5.5 0 01-.708-.708L9.293 8 6.146 4.854a.5.5 0 010-.708z"/></symbol><symbol id="icon-arrow-24"><path fill-rule="evenodd" clip-rule="evenodd" d="M9.293 6.293a1 1 0 011.414 0l5 5a1 1 0 010 1.414l-5 5a1 1 0 01-1.414-1.414L13.586 12 9.293 7.707a1 1 0 010-1.414z"/></symbol><symbol id="icon-bar-16"><path fill-rule="evenodd" clip-rule="evenodd" d="M4.5 3A1.5 1.5 0 003 4.5v7A1.5 1.5 0 004.5 13h7a1.5 1.5 0 001.5-1.5v-7A1.5 1.5 0 0011.5 3h-7zM4 4.5a.5.5 0 01.5-.5h7a.5.5 0 01.5.5v7a.5.5 0 01-.5.5h-7a.5.5 0 01-.5-.5v-7zM5.5 6a.5.5 0 000 1h5a.5.5 0 000-1h-5z"/></symbol><symbol id="icon-bell-16"><path fill-rule="evenodd" clip-rule="evenodd" d="M5 7.5c0-1.071.305-1.948.815-2.548C6.32 4.36 7.051 4 8 4c.949 0 1.681.36 2.185.952.51.6.815 1.477.815 2.548V10c0 .8.288 1.508.558 2H4.442c.27-.492.558-1.2.558-2V7.5h-.5.5zM7 13H3.5a.5.5 0 01-.374-.831v-.001l.005-.006a2.156 2.156 0 00.123-.156 4.38 4.38 0 00.308-.482C3.79 11.111 4 10.571 4 10V7.5h.5H4c0-1.254.358-2.378 1.054-3.196C5.757 3.477 6.774 3 8 3c1.226 0 2.243.477 2.946 1.304C11.642 5.122 12 6.246 12 7.5V10c0 .57.21 1.11.438 1.524a4.385 4.385 0 00.431.638l.005.006A.5.5 0 0112.5 13H9a1 1 0 11-2 0z"/></symbol><symbol id="icon-bell-24"><path fill-rule="evenodd" clip-rule="evenodd" d="M7 10c0-2.83 2.17-5 5-5s5 2.17 5 5h1-1V14c0 1.12.27 2.205.53 3H6.47c.26-.795.53-1.88.53-3V10H6h1zm3 9H5a1 1 0 01-.895-1.446v-.001l.006-.012.026-.054c.023-.05.058-.126.1-.225.085-.198.2-.484.314-.828.234-.7.449-1.585.449-2.434V10h1-1c0-3.935 3.065-7 7-7s7 3.065 7 7h-1 1V14c0 .849.215 1.734.449 2.434a10.772 10.772 0 00.414 1.053l.026.055.005.01v.001A1 1 0 0119 19h-5a2 2 0 11-4 0z"/></symbol><symbol id="icon-bell-filled-16"><path fill-rule="evenodd" clip-rule="evenodd" d="M4 7c0-2.326 1.825-4 4-4s4 1.674 4 4v2.5c0 .79.33 1.499.612 1.958.135.22-.021.542-.28.542H3.668c-.259 0-.415-.322-.28-.542C3.67 10.998 4 10.29 4 9.5V7zm5.5 6a1.5 1.5 0 01-3 0h3z"/></symbol><symbol id="icon-bell-filled-24"><path d="M12 3c-4.571 0-7 3.617-7 7v5c0 2-1 4-1 4h6a2 2 0 104 0h6s-1-2-1-4v-5c0-3.383-2.429-7-7-7z"/></symbol><symbol id="icon-bin-16"><path fill-rule="evenodd" clip-rule="evenodd" d="M6.73 2.287C7.115 2.072 7.585 2 8 2c.415 0 .885.072 1.27.287.41.23.73.63.73 1.213V4h2.492a.5.5 0 01.015 0h.993a.5.5 0 010 1h-.564l-.94 6.896-.003.015c-.085.508-.232 1.026-.543 1.423-.334.428-.82.666-1.45.666H6c-.632 0-1.113-.24-1.44-.672-.302-.397-.441-.915-.525-1.417l-.002-.013L3.065 5H2.5a.5.5 0 010-1H6v-.5c0-.582.32-.984.73-1.213zM7 4h2v-.5c0-.154-.062-.253-.218-.34C8.602 3.06 8.322 3 8 3c-.321 0-.601.06-.782.16-.156.087-.218.186-.218.34V4zM4.075 5l.947 6.753c.077.46.185.775.334.97.123.163.298.277.644.277H10c.347 0 .532-.115.663-.282.153-.197.267-.512.343-.964L11.927 5H4.075zM6.45 6.002a.5.5 0 01.548.448l.5 5a.5.5 0 01-.996.1l-.5-5a.5.5 0 01.448-.548zm3.1 0a.5.5 0 01.448.548l-.5 5a.5.5 0 01-.996-.1l.5-5a.5.5 0 01.548-.448z"/></symbol><symbol id="icon-bin-24"><path fill-rule="evenodd" clip-rule="evenodd" d="M12 3a3 3 0 00-3 3H5a1 1 0 000 2h.142l1.609 10.456A2.999 2.999 0 009.715 21h4.57a2.999 2.999 0 002.964-2.544L18.858 8H19a1 1 0 100-2h-4a3 3 0 00-3-3zm0 2a1 1 0 011 1h-2a1 1 0 011-1zM8.727 18.152L7.166 8h9.668l-1.561 10.152a.999.999 0 01-.988.848h-4.57a.999.999 0 01-.988-.848zm2.268-7.252a1 1 0 10-1.99.2l.5 5a1 1 0 001.99-.2l-.5-5zm4 .2a1 1 0 10-1.99-.2l-.5 5a1 1 0 101.99.2l.5-5z"/></symbol><symbol id="icon-board-16"><path fill-rule="evenodd" clip-rule="evenodd" d="M3 4.5A1.5 1.5 0 014.5 3h1c.384 0 .735.144 1 .382A1.494 1.494 0 017.5 3h1c.384 0 .735.144 1 .382a1.494 1.494 0 011-.382h1A1.5 1.5 0 0113 4.5v7a1.5 1.5 0 01-1.5 1.5h-1c-.384 0-.735-.144-1-.382a1.494 1.494 0 01-1 .382h-1c-.384 0-.735-.144-1-.382a1.494 1.494 0 01-1 .382h-1A1.5 1.5 0 013 11.5v-7zm6 7v-7a.5.5 0 00-.5-.5h-1a.5.5 0 00-.5.5v7a.5.5 0 00.5.5h1a.5.5 0 00.5-.5zm1-7v7a.5.5 0 00.5.5h1a.5.5 0 00.5-.5v-7a.5.5 0 00-.5-.5h-1a.5.5 0 00-.5.5zM5.5 4a.5.5 0 01.5.5v7a.5.5 0 01-.5.5h-1a.5.5 0 01-.5-.5v-7a.5.5 0 01.5-.5h1z"/></symbol><symbol id="icon-board-24"><path fill-rule="evenodd" clip-rule="evenodd" d="M5 4a3 3 0 00-3 3v10a3 3 0 003 3h2c.768 0 1.47-.289 2-.764.53.475 1.232.764 2 .764h2c.768 0 1.47-.289 2-.764.53.475 1.232.764 2 .764h2a3 3 0 003-3V7a3 3 0 00-3-3h-2c-.768 0-1.47.289-2 .764A2.989 2.989 0 0013 4h-2c-.768 0-1.47.289-2 .764A2.989 2.989 0 007 4H5zm3 3a1 1 0 00-1-1H5a1 1 0 00-1 1v10a1 1 0 001 1h2a1 1 0 001-1V7zm8 0v10a1 1 0 001 1h2a1 1 0 001-1V7a1 1 0 00-1-1h-2a1 1 0 00-1 1zm-6 10a1 1 0 001 1h2a1 1 0 001-1V7a1 1 0 00-1-1h-2a1 1 0 00-1 1v10z"/></symbol><symbol id="icon-bolt-16"><path fill-rule="evenodd" clip-rule="evenodd" d="M9.164 1.528a.5.5 0 01.328.561L8.599 7H11a.5.5 0 01.426.762l-4 6.5a.5.5 0 01-.914-.37L7.377 10H5a.5.5 0 01-.441-.735l4-7.5a.5.5 0 01.605-.237zM5.834 9H8a.5.5 0 01.488.608l-.354 1.596L10.105 8H8a.5.5 0 01-.492-.59l.428-2.352L5.833 9z"/></symbol><symbol id="icon-bolt-24"><path fill-rule="evenodd" clip-rule="evenodd" d="M14.43 3.097a1 1 0 01.531 1.178L13.326 10H17a1 1 0 01.79 1.614l-7 9a1 1 0 01-1.739-.93L10.613 15H7a1 1 0 01-.82-1.573l7-10a1 1 0 011.25-.33zM8.92 13H12a1 1 0 01.949 1.316l-.154.462L14.955 12H12a1 1 0 01-.961-1.275l.362-1.268L8.92 13z"/></symbol><symbol id="icon-bolt-filled-16"><path d="M4.746 9.481l3.57-7.537c.142-.3.594-.18.57.15L8.527 7.12a.3.3 0 00.349.317l2.026-.337a.3.3 0 01.314.436l-3.53 6.668c-.153.289-.591.16-.564-.165l.346-4.155a.3.3 0 00-.348-.32l-2.054.342a.3.3 0 01-.32-.425z"/></symbol><symbol id="icon-bookmark-16"><path fill-rule="evenodd" clip-rule="evenodd" d="M4.575 2.64C5.028 2.165 5.697 2 6.5 2h3c.803 0 1.472.165 1.925.64.447.47.575 1.132.575 1.86v9a.5.5 0 01-.854.354L8 10.707l-3.146 3.147A.5.5 0 014 13.5v-9c0-.728.128-1.39.575-1.86zm.725.69c-.178.186-.3.523-.3 1.17v7.793l2.646-2.647a.5.5 0 01.708 0L11 12.293V4.5c0-.647-.122-.984-.3-1.17-.172-.182-.503-.33-1.2-.33h-3c-.697 0-1.028.148-1.2.33z"/></symbol><symbol id="icon-bookmark-24"><path fill-rule="evenodd" clip-rule="evenodd" d="M6 6a3 3 0 013-3h6a3 3 0 013 3v14a1 1 0 01-1.625.78L12 17.28l-4.375 3.5A1 1 0 016 20V6zm3-1a1 1 0 00-1 1v11.92l3.375-2.7a1 1 0 011.25 0L16 17.92V6a1 1 0 00-1-1H9z"/></symbol><symbol id="icon-bookmark-filled-24"><path d="M16 3H8a2 2 0 00-2 2v16l6-5 6 5V5a2 2 0 00-2-2z"/></symbol><symbol id="icon-box-16"><path fill-rule="evenodd" clip-rule="evenodd" d="M7.72 2.086a.5.5 0 01.56 0l4.5 3.056a.5.5 0 01.22.414v4.888a.5.5 0 01-.22.414l-4.5 3.056a.5.5 0 01-.56 0l-4.5-3.056a.5.5 0 01-.22-.414V5.556a.5.5 0 01.22-.414l4.5-3.056zM4 6.5l3.5 2.377v3.68L4 10.18V6.5zm4.5 6.057L12 10.18V6.5L8.5 8.875v3.68zM8 8.006l3.61-2.45L8 3.104 4.39 5.556 8 8.006z"/></symbol><symbol id="icon-box-24"><path fill-rule="evenodd" clip-rule="evenodd" d="M11.419 2.186a1 1 0 011.162 0l7 5A1 1 0 0120 8v8a1 1 0 01-.419.814l-7 5a1 1 0 01-1.162 0l-7-5A1 1 0 014 16V8a1 1 0 01.419-.814l7-5zM6 9.943l5 3.572v5.542l-5-3.572V9.943zm7 9.114l5-3.572V9.943l-5 3.572v5.542zm-1-7.286L17.28 8 12 4.229 6.72 8 12 11.771z"/></symbol><symbol id="icon-box-filled-16"><path fill-rule="evenodd" clip-rule="evenodd" d="M3.606 6.38A.4.4 0 003 6.723v4.657a.4.4 0 00.194.343l3.7 2.22A.4.4 0 007.5 13.6V8.943a.4.4 0 00-.194-.343l-3.7-2.22zm.035-1.831a.4.4 0 000 .686l4.153 2.492a.4.4 0 00.412 0l4.153-2.492a.4.4 0 000-.686L8.206 2.057a.4.4 0 00-.412 0L3.641 4.549zM13 6.723a.4.4 0 00-.606-.343l-3.7 2.22a.4.4 0 00-.194.343V13.6a.4.4 0 00.606.343l3.7-2.22A.4.4 0 0013 11.38V6.723z"/></symbol><symbol id="icon-briefcase-16"><path fill-rule="evenodd" clip-rule="evenodd" d="M7.5 3A1.5 1.5 0 006 4.5V5H4.5A1.5 1.5 0 003 6.5v4A1.5 1.5 0 004.5 12h7a1.5 1.5 0 001.5-1.5v-4A1.5 1.5 0 0011.5 5H10v-.5A1.5 1.5 0 008.5 3h-1zM9 5v-.5a.5.5 0 00-.5-.5h-1a.5.5 0 00-.5.5V5h2zM4 6.5a.5.5 0 01.5-.5h7a.5.5 0 01.5.5v4a.5.5 0 01-.5.5h-7a.5.5 0 01-.5-.5v-4z"/></symbol><symbol id="icon-briefcase-24"><path fill-rule="evenodd" clip-rule="evenodd" d="M11 4a3 3 0 00-3 3v1H7a4 4 0 00-4 4v4a4 4 0 004 4h10a4 4 0 004-4v-4a4 4 0 00-4-4h-1V7a3 3 0 00-3-3h-2zm3 4V7a1 1 0 00-1-1h-2a1 1 0 00-1 1v1h4zm-9 4a2 2 0 012-2h10a2 2 0 012 2v4a2 2 0 01-2 2H7a2 2 0 01-2-2v-4z"/></symbol><symbol id="icon-briefcase-filled-16"><path fill-rule="evenodd" clip-rule="evenodd" d="M7.5 3A1.5 1.5 0 006 4.5V5H4.111C3.497 5 3 5.522 3 6.167v4.666C3 11.478 3.497 12 4.111 12h7.778c.614 0 1.111-.522 1.111-1.167V6.167C13 5.522 12.502 5 11.889 5H10v-.5A1.5 1.5 0 008.5 3h-1zM9 5v-.5a.5.5 0 00-.5-.5h-1a.5.5 0 00-.5.5V5h2z"/></symbol><symbol id="icon-building-16"><path fill-rule="evenodd" clip-rule="evenodd" d="M3.8 2C2.78 2 2 2.866 2 3.875v8.25C2 13.134 2.78 14 3.8 14H13.2c1.02 0 1.8-.866 1.8-1.875V5.937C15 4.96 14.248 4 13.2 4H11v-.125C11 2.866 10.22 2 9.2 2H3.8zM12 13h-1.209c.134-.264.209-.563.209-.875V5h2.2c.388 0 .8.398.8.938v6.187c0 .51-.384.875-.8.875H13v-.5a.5.5 0 00-1 0v.5zm-2-.875v-8.25C10 3.365 9.616 3 9.2 3H3.8c-.416 0-.8.365-.8.875v8.25c0 .51.384.875.8.875H6v-.5a.5.5 0 011 0v.5h2.2c.416 0 .8-.365.8-.875zM4.5 4a.5.5 0 000 1h1a.5.5 0 000-1h-1zm3 0a.5.5 0 000 1h1a.5.5 0 000-1h-1zm-3 2a.5.5 0 000 1h1a.5.5 0 000-1h-1zm3 0a.5.5 0 000 1h1a.5.5 0 000-1h-1zm-3 2a.5.5 0 000 1h1a.5.5 0 000-1h-1zm3 0a.5.5 0 000 1h1a.5.5 0 000-1h-1zm-3 2a.5.5 0 000 1h1a.5.5 0 000-1h-1zm3 0a.5.5 0 000 1h1a.5.5 0 000-1h-1zm5-3a.5.5 0 100-1 .5.5 0 000 1zm.5 1.5a.5.5 0 11-1 0 .5.5 0 011 0zm-.5 2.5a.5.5 0 100-1 .5.5 0 000 1z"/></symbol><symbol id="icon-building-24"><path fill-rule="evenodd" clip-rule="evenodd" d="M4 3a3 3 0 00-3 3v12a3 3 0 003 3h16a3 3 0 003-3V9a3 3 0 00-3-3h-5a3 3 0 00-3-3H4zm13 16h-2.17c.11-.313.17-.65.17-1V8h5a1 1 0 011 1v9a1 1 0 01-1 1h-1v-1a1 1 0 10-2 0v1zm-4-1V6a1 1 0 00-1-1H4a1 1 0 00-1 1v12a1 1 0 001 1h3v-1a1 1 0 112 0v1h3a1 1 0 001-1zM6 9a1 1 0 100-2 1 1 0 000 2zm0 3a1 1 0 100-2 1 1 0 000 2zm1 2a1 1 0 11-2 0 1 1 0 012 0zm3-5a1 1 0 100-2 1 1 0 000 2zm1 2a1 1 0 11-2 0 1 1 0 012 0zm-1 4a1 1 0 100-2 1 1 0 000 2zm9-4a1 1 0 11-2 0 1 1 0 012 0zm-1 4a1 1 0 100-2 1 1 0 000 2z"/></symbol><symbol id="icon-bulb-16"><path fill-rule="evenodd" clip-rule="evenodd" d="M5 5.938C5 4.324 6.335 3 8 3s3 1.324 3 2.938a2.937 2.937 0 01-1.797 2.691.5.5 0 00-.303.46V10H7.1v-.911a.5.5 0 00-.303-.46A2.937 2.937 0 015 5.938zm2.1 6.187V11h1.8v1.125A.888.888 0 018 13c-.506 0-.9-.4-.9-.875zM8 2C5.8 2 4 3.754 4 5.938c0 1.501.853 2.801 2.1 3.465v2.722C6.1 13.169 6.96 14 8 14s1.9-.831 1.9-1.875V9.403A3.928 3.928 0 0012 5.937C12 3.755 10.2 2 8 2zM6.854 5.146a.5.5 0 10-.708.708l1 1a.5.5 0 00.708 0l.646-.647.646.647a.5.5 0 10.708-.708l-1-1a.5.5 0 00-.708 0l-.646.647-.646-.647z"/></symbol><symbol id="icon-bulb-24"><path fill-rule="evenodd" clip-rule="evenodd" d="M8 9a4 4 0 115.6 3.668 1 1 0 00-.6.916V15h-2v-1.416a1 1 0 00-.6-.916A4.001 4.001 0 018 9zm3 9v-1h2v1a1 1 0 11-2 0zm1-15a6 6 0 00-3 11.197V18a3 3 0 106 0v-3.803A6 6 0 0012 3zm1.707 5.293a1 1 0 00-1.154-.187l-1.356.677-.49-.49a1 1 0 00-1.414 1.414l1 1a1 1 0 001.154.187l1.356-.677.49.49a1 1 0 001.414-1.414l-1-1z"/></symbol><symbol id="icon-bundle-16"><path fill-rule="evenodd" clip-rule="evenodd" d="M4 4a1 1 0 100 2h8a1 1 0 100-2H4zm-.5 3a.5.5 0 100 1h9a.5.5 0 000-1h-9zm0 2a.5.5 0 000 1h9a.5.5 0 000-1h-9zM3 11.5a.5.5 0 01.5-.5h9a.5.5 0 110 1h-9a.5.5 0 01-.5-.5z"/></symbol><symbol id="icon-bundle-24"><path fill-rule="evenodd" clip-rule="evenodd" d="M5.5 7a1.5 1.5 0 100 3h13a1.5 1.5 0 000-3h-13zm-1.611 6a1 1 0 011-1H19.11a1 1 0 110 2H4.89a1 1 0 01-1-1zm0 4a1 1 0 011-1H19.11a1 1 0 110 2H4.89a1 1 0 01-1-1z"/></symbol><symbol id="icon-calendar-16"><path fill-rule="evenodd" clip-rule="evenodd" d="M5 1.5a.5.5 0 00-1 0v.635c-.45.13-.848.355-1.171.675C2.281 3.35 2 4.114 2 5v6c0 .886.281 1.649.829 2.19.547.54 1.308.81 2.171.81h6c.863 0 1.624-.27 2.171-.81.548-.541.829-1.303.829-2.19V5c0-.886-.281-1.649-.829-2.19A2.723 2.723 0 0012 2.135V1.5a.5.5 0 00-1 0V2H5v-.5zM3.532 3.52c.247-.243.591-.419 1.032-.488A2.841 2.841 0 015 3h6a2.84 2.84 0 01.436.032c.441.07.785.244 1.032.489.323.319.532.806.532 1.479v6c0 .673-.21 1.16-.532 1.48-.323.319-.812.52-1.468.52H5c-.656 0-1.145-.201-1.468-.52C3.209 12.16 3 11.672 3 11V5c0-.673.21-1.16.532-1.48zM4.5 5a.5.5 0 000 1h7a.5.5 0 000-1h-7zm0 3a.5.5 0 000 1h1a.5.5 0 000-1h-1zm3 0a.5.5 0 000 1h1a.5.5 0 000-1h-1zm3 0a.5.5 0 000 1h1a.5.5 0 000-1h-1zm-6 2a.5.5 0 000 1h1a.5.5 0 000-1h-1zm3 0a.5.5 0 000 1h1a.5.5 0 000-1h-1zm3 0a.5.5 0 000 1h1a.5.5 0 000-1h-1z"/></symbol><symbol id="icon-calendar-24"><path fill-rule="evenodd" clip-rule="evenodd" d="M8 2a1 1 0 00-2 0v1.416A5.001 5.001 0 003 8v8a5 5 0 005 5h8a5 5 0 005-5V8a5.001 5.001 0 00-3-4.584V2a1 1 0 10-2 0v1H8V2zM5 8c0-1.397.955-2.572 2.248-2.905h.003C7.491 5.032 7.741 5 8 5h8c.258 0 .508.033.747.094l.006.001A3.001 3.001 0 0119 8v8a3 3 0 01-3 3H8a3 3 0 01-3-3V8zm3 0a1 1 0 000 2h8a1 1 0 100-2H8zm1 5a1 1 0 11-2 0 1 1 0 012 0zm0 3a1 1 0 11-2 0 1 1 0 012 0zm3 1a1 1 0 100-2 1 1 0 000 2zm5-1a1 1 0 11-2 0 1 1 0 012 0zm-5-2a1 1 0 100-2 1 1 0 000 2zm5-1a1 1 0 11-2 0 1 1 0 012 0z"/></symbol><symbol id="icon-calendar-filled-16"><path fill-rule="evenodd" clip-rule="evenodd" d="M5 1.5a.5.5 0 00-1 0V2a2 2 0 00-2 2v8a2 2 0 002 2h8a2 2 0 002-2V4a2 2 0 00-2-2v-.5a.5.5 0 00-1 0V2H5v-.5zm-1 4a.5.5 0 01.5-.5h7a.5.5 0 010 1h-7a.5.5 0 01-.5-.5zm0 3a.5.5 0 01.5-.5h1a.5.5 0 010 1h-1a.5.5 0 01-.5-.5zm3 0a.5.5 0 01.5-.5h1a.5.5 0 010 1h-1a.5.5 0 01-.5-.5zm3 0a.5.5 0 01.5-.5h1a.5.5 0 010 1h-1a.5.5 0 01-.5-.5zm-6 2a.5.5 0 01.5-.5h1a.5.5 0 010 1h-1a.5.5 0 01-.5-.5zm3 0a.5.5 0 01.5-.5h1a.5.5 0 010 1h-1a.5.5 0 01-.5-.5zm3 0a.5.5 0 01.5-.5h1a.5.5 0 010 1h-1a.5.5 0 01-.5-.5z"/></symbol><symbol id="icon-calendar-filled-24"><path fill-rule="evenodd" clip-rule="evenodd" d="M7 2a1 1 0 011 1v1h8V3a1 1 0 112 0v1.535c1.196.692 2 1.984 2 3.465v8a4 4 0 01-4 4H8a4 4 0 01-4-4V8c0-1.48.804-2.773 2-3.465V3a1 1 0 011-1zm1 5a1 1 0 000 2h8a1 1 0 100-2H8zm0 6a1 1 0 100-2 1 1 0 000 2zm1 3a1 1 0 11-2 0 1 1 0 012 0zm3 1a1 1 0 100-2 1 1 0 000 2zm5-1a1 1 0 11-2 0 1 1 0 012 0zm-5-3a1 1 0 100-2 1 1 0 000 2zm5-1a1 1 0 11-2 0 1 1 0 012 0z"/></symbol><symbol id="icon-chain"><path fill-rule="evenodd" clip-rule="evenodd" d="M3.853 6.146c-.404-.404-.533-.829-.51-1.21.023-.394.21-.783.51-1.082.3-.3.688-.488 1.083-.511.381-.023.806.107 1.21.51l.662.662.12.12.023.023.001.001.001.001.001.002h.001l.001.001.19.19a.5.5 0 00.708-.707l-.191-.19-.001-.001-.001-.001-.001-.001-.002-.002-.16-.16-.014-.014-.01-.01-.001-.001v-.001h-.001l-.001-.001-.618-.618c-.596-.595-1.295-.841-1.976-.801-.669.039-1.28.351-1.73.801-.451.45-.763 1.062-.802 1.73-.04.682.205 1.382.801 1.978l2.5 2.5c.596.595 1.296.841 1.977.801.669-.039 1.28-.351 1.73-.801a.5.5 0 10-.707-.708c-.3.3-.688.488-1.082.511-.381.023-.806-.106-1.21-.51l-2.5-2.5zm3.5 1.208c.3-.3.689-.488 1.083-.511.381-.023.806.106 1.21.51l2.5 2.5c.405.405.534.83.511 1.211a1.698 1.698 0 01-.51 1.082c-.3.3-.688.488-1.082.511-.382.023-.807-.107-1.211-.51l-.662-.662-.12-.12-.023-.023-.002-.002-.002-.002v-.001l-.191-.19a.5.5 0 00-.708.707l.192.19v.001l.001.001.001.001.002.002.16.16.014.014.01.01.001.001v.001h.001l.002.002.617.617c.595.596 1.295.841 1.976.801.669-.039 1.28-.351 1.73-.801.451-.45.763-1.062.803-1.73.04-.682-.206-1.382-.802-1.978l-2.5-2.5c-.596-.595-1.296-.841-1.977-.801-.669.039-1.28.351-1.73.801a.5.5 0 00.707.708z"/></symbol><symbol id="icon-chat-16"><path fill-rule="evenodd" clip-rule="evenodd" d="M13 5.5v6.793l-1.146-1.147A.5.5 0 0011.5 11h-7A1.5 1.5 0 013 9.5v-4A1.5 1.5 0 014.5 4h7A1.5 1.5 0 0113 5.5zm1 8v-8A2.5 2.5 0 0011.5 3h-7A2.5 2.5 0 002 5.5v4A2.5 2.5 0 004.5 12h6.793l1.853 1.854A.5.5 0 0014 13.5zM10.5 8a.5.5 0 000-1h-6a.5.5 0 000 1h6zm-3-2a.5.5 0 000-1h-3a.5.5 0 000 1h3z"/></symbol><symbol id="icon-chat-filled-16"><path fill-rule="evenodd" clip-rule="evenodd" d="M2 10V5a2 2 0 012-2h8a2 2 0 012 2v9l-2-2H4a2 2 0 01-2-2zm8.5-2a.5.5 0 000-1h-6a.5.5 0 000 1h6zm-3-2a.5.5 0 000-1h-3a.5.5 0 000 1h3z"/></symbol><symbol id="icon-check-16"><path fill-rule="evenodd" clip-rule="evenodd" d="M3 8a5 5 0 1110 0A5 5 0 013 8zm5-6a6 6 0 100 12A6 6 0 008 2zm2.929 3.757a.5.5 0 10-.858-.514l-2.67 4.45-1.547-1.547a.5.5 0 10-.708.708l2 2a.5.5 0 00.783-.097l3-5z"/></symbol><symbol id="icon-check-24"><path fill-rule="evenodd" clip-rule="evenodd" d="M5 12a7 7 0 1114 0 7 7 0 01-14 0zm7-9a9 9 0 100 18 9 9 0 000-18zm4.822 6.57a1 1 0 10-1.644-1.14l-3.818 5.516-2.153-2.153a1 1 0 00-1.414 1.414l3 3a1 1 0 001.53-.138l4.5-6.5z"/></symbol><symbol id="icon-check-filled-24"><path fill-rule="evenodd" clip-rule="evenodd" d="M21 12a9 9 0 11-18 0 9 9 0 0118 0zm-4.159-2.46a1 1 0 00-1.682-1.08l-3.88 6.034-2.628-2.253a1 1 0 00-1.302 1.518l3.5 3a1 1 0 001.492-.218l4.5-7z"/></symbol><symbol id="icon-checkbox-16"><path fill-rule="evenodd" clip-rule="evenodd" d="M4.5 2A2.5 2.5 0 002 4.5v7A2.5 2.5 0 004.5 14h7a2.5 2.5 0 002.5-2.5v-7A2.5 2.5 0 0011.5 2h-7zM3 4.5A1.5 1.5 0 014.5 3h7A1.5 1.5 0 0113 4.5v7a1.5 1.5 0 01-1.5 1.5h-7A1.5 1.5 0 013 11.5v-7zm7.929 1.257a.5.5 0 10-.858-.514l-2.67 4.45-1.547-1.547a.5.5 0 10-.708.708l2 2a.5.5 0 00.783-.097l3-5z"/></symbol><symbol id="icon-circlearrow-16"><path fill-rule="evenodd" clip-rule="evenodd" d="M14 1.5a.5.5 0 00-1 0v2.793l-.646-.647c-2.356-2.355-6.266-2.219-8.597.111a6 6 0 108.486 8.486.5.5 0 10-.707-.707 5 5 0 11-7.072-7.072c1.966-1.965 5.243-2.05 7.182-.11l.647.646H9.5a.5.5 0 000 1h4a.5.5 0 00.5-.5v-4z"/></symbol><symbol id="icon-circlearrow-24"><path fill-rule="evenodd" clip-rule="evenodd" d="M20 4a1 1 0 10-2 0v2.291a9 9 0 10.364 13.073 1 1 0 00-1.414-1.414 7 7 0 11-.054-9.953l.002.003H14a1 1 0 100 2h5a1 1 0 001-1V4z"/></symbol><symbol id="icon-copy-16"><path fill-rule="evenodd" clip-rule="evenodd" d="M5.042 4.042A2.5 2.5 0 003 6.5v5A2.5 2.5 0 005.5 14h3a2.5 2.5 0 002.458-2.042A2.5 2.5 0 0013 9.5v-5A2.5 2.5 0 0010.5 2h-3a2.5 2.5 0 00-2.458 2.042zM6.085 4H7.5a.5.5 0 01.354.146l3 3A.5.5 0 0111 7.5v3.415A1.5 1.5 0 0012 9.5v-5A1.5 1.5 0 0010.5 3h-3a1.5 1.5 0 00-1.415 1zM5.5 5A1.5 1.5 0 004 6.5v5A1.5 1.5 0 005.5 13h3a1.5 1.5 0 001.5-1.5V8H8.5c-.413 0-.783-.201-1.041-.459C7.2 7.283 7 6.913 7 6.5V5H5.5zm2.5.707L9.293 7H8.5a.51.51 0 01-.334-.166A.51.51 0 018 6.5V5.707z"/></symbol><symbol id="icon-date-16"><path fill-rule="evenodd" clip-rule="evenodd" d="M5 1.5a.5.5 0 00-1 0v.635c-.45.13-.848.355-1.171.675C2.281 3.35 2 4.114 2 5v6c0 .886.281 1.649.829 2.19.547.54 1.308.81 2.171.81h6c.863 0 1.624-.27 2.171-.81.548-.541.829-1.303.829-2.19V5c0-.886-.281-1.649-.829-2.19A2.723 2.723 0 0012 2.135V1.5a.5.5 0 00-1 0V2H5v-.5zM3.532 3.52c.247-.243.591-.419 1.032-.488A2.841 2.841 0 015 3h6a2.84 2.84 0 01.436.032c.441.07.785.244 1.032.489.323.319.532.806.532 1.479v6c0 .673-.21 1.16-.532 1.48-.323.319-.812.52-1.468.52H5c-.656 0-1.145-.201-1.468-.52C3.209 12.16 3 11.672 3 11V5c0-.673.21-1.16.532-1.48zm2.744 3.427a.5.5 0 00.671-.223v.002h-.001a.384.384 0 01.012-.02 1.78 1.78 0 01.271-.352C7.424 6.158 7.679 6 8 6c.569 0 .864.27.97.55.11.294.056.717-.324 1.096l-2.5 2.5A.5.5 0 006.5 11h3a.5.5 0 000-1H7.707l1.647-1.646c.62-.62.817-1.448.552-2.155C9.636 5.48 8.93 5 8 5c-.68 0-1.174.342-1.479.646a2.78 2.78 0 00-.456.607l-.008.015-.002.005-.001.002-.001.001.447.224-.447-.224a.5.5 0 00.223.671z"/></symbol><symbol id="icon-date-24"><path fill-rule="evenodd" clip-rule="evenodd" d="M8 2a1 1 0 00-2 0v1.416A5.001 5.001 0 003 8v8a5 5 0 005 5h8a5 5 0 005-5V8a5.001 5.001 0 00-3-4.584V2a1 1 0 10-2 0v1H8V2zM5 8c0-1.397.955-2.572 2.248-2.905h.003C7.491 5.032 7.741 5 8 5h8c.258 0 .508.033.747.094l.006.001A3.001 3.001 0 0119 8v8a3 3 0 01-3 3H8a3 3 0 01-3-3V8zm5.707 2.707c.49-.49.733-.707 1.293-.707.015 0 .113.013.252.101.132.084.244.201.311.322a.489.489 0 01.066.322c-.016.103-.08.293-.336.548l-3 3A1 1 0 0010 16h4a1 1 0 100-2h-1.586l1.293-1.293c.495-.495.805-1.055.898-1.655a2.487 2.487 0 00-.293-1.6C13.85 8.62 12.916 8 12 8c-1.415 0-2.17.756-2.68 1.267l-.027.026a1 1 0 001.414 1.414z"/></symbol><symbol id="icon-eye-closed-16"><path fill-rule="evenodd" clip-rule="evenodd" d="M5.33 11.928a.5.5 0 01-.263-.657l.333-.773a6.145 6.145 0 01-1.9-1.266l-.651.636a.5.5 0 01-.698-.716l.685-.669a7.784 7.784 0 01-.783-1.26.5.5 0 01.894-.447c.174.348.473.881.942 1.414a5.186 5.186 0 002.33 1.545A5.81 5.81 0 008 10c.678 0 1.268-.1 1.781-.265a5.186 5.186 0 002.33-1.545c.47-.533.769-1.066.943-1.414a.5.5 0 11.894.448c-.157.313-.408.77-.783 1.26l.685.668a.5.5 0 11-.698.716l-.652-.636a6.145 6.145 0 01-1.87 1.254l.379.759a.5.5 0 11-.895.447l-.443-.887A6.983 6.983 0 018 11a6.992 6.992 0 01-1.646-.19l-.368.856a.5.5 0 01-.657.262z"/></symbol><symbol id="icon-eye-open-16"><path fill-rule="evenodd" clip-rule="evenodd" d="M8 4C4.205 4 2.577 6.729 2.053 7.776a.5.5 0 00.042.518c.29.398.835 1.081 1.784 1.661C4.83 10.537 6.16 11 8 11c1.839 0 3.169-.463 4.12-1.045a6.156 6.156 0 001.783-1.66.5.5 0 00.044-.519C13.423 6.73 11.795 4 8 4zM4.4 9.102A5.045 5.045 0 013.09 7.95c.496-.895 1.58-2.4 3.693-2.831C6.307 5.667 6 6.529 6 7.5c0 .996.323 1.878.821 2.424-1.047-.141-1.834-.463-2.42-.822zm4.779.822c1.047-.141 1.832-.463 2.418-.822A5.08 5.08 0 0012.91 7.95c-.496-.895-1.58-2.4-3.692-2.83.476.548.783 1.41.783 2.381 0 .996-.323 1.878-.821 2.424z"/></symbol><symbol id="icon-filter-16"><path fill-rule="evenodd" clip-rule="evenodd" d="M2.388 4.577a3.148 3.148 0 01-.27-.254.497.497 0 01.092-.73l.001-.001.023-.017.081-.055c.07-.047.17-.111.301-.187.261-.151.642-.35 1.136-.547C4.739 2.39 6.177 2 8 2c1.82 0 3.268.376 4.263.764.496.194.882.392 1.146.55.132.078.239.15.317.21.036.028.08.063.117.101a.517.517 0 01.15.285.505.505 0 01-.127.43c-.13.142-.36.368-.635.636l-.264.259c-.4.392-.868.86-1.315 1.346-.45.488-.867.984-1.168 1.433-.32.475-.446.806-.446.986v4.5a.5.5 0 01-.775.418l-3.038-2A.5.5 0 016 11.5V8.992c.001-.06-.023-.187-.118-.39a4.678 4.678 0 00-.407-.676c-.355-.506-.838-1.069-1.333-1.601a34.683 34.683 0 00-1.754-1.748zm10.265-.54a7.527 7.527 0 00-.754-.341C11.006 3.347 9.68 3 8 3c-1.677 0-2.99.36-3.877.714a8.166 8.166 0 00-.746.342C4.087 4.493 5.463 5 8 5c2.574 0 3.95-.522 4.653-.964zM4.927 5.7C5.74 5.883 6.75 6 8 6c1.272 0 2.294-.122 3.114-.309-.067.07-.133.141-.198.213-.463.503-.92 1.042-1.262 1.552-.326.485-.616 1.037-.616 1.544v3.572L7 11.231V9.004c.004-.282-.092-.569-.212-.825a5.651 5.651 0 00-.494-.827c-.38-.542-.876-1.12-1.367-1.652z"/></symbol><symbol id="icon-filter-24"><path fill-rule="evenodd" clip-rule="evenodd" d="M16.997 6.035c.454.206.779.404.988.566C17.233 7.197 15.652 8 12.036 8c-3.803 0-5.355-.889-6.059-1.49.14-.13.38-.303.756-.49C7.815 5.477 9.655 5 12.036 5c1.853 0 3.712.467 4.961 1.035zm-1.86 3.742c-.875.14-1.899.223-3.1.223-1.216 0-2.249-.084-3.13-.227.497.627.972 1.29 1.34 1.932.402.7.764 1.52.753 2.303V16.5l2 1.5v-4c0-.781.373-1.602.784-2.303.373-.637.853-1.296 1.353-1.92zM4.34 7.717l-.01-.01a1.6 1.6 0 01-.484-1.097 1.82 1.82 0 01.328-1.055c.359-.539.976-.98 1.666-1.324C7.257 3.52 9.417 3 12.036 3c2.148 0 4.289.533 5.789 1.215.734.333 1.41.745 1.843 1.223.216.238.448.577.509 1.005a1.47 1.47 0 01-.428 1.258l-.006.006-.05.05c-.53.53-1.713 1.713-2.778 3.004-.551.668-1.05 1.34-1.406 1.948C15.132 13.352 15 13.781 15 14v5.999L14 20h1a1 1 0 01-1.6.8l-4-3a1 1 0 01-.4-.79l1-.01-1 .01v-.086l-.003-.235-.004-.785A97.82 97.82 0 019 13.982c.004-.214-.119-.64-.487-1.281-.347-.606-.838-1.277-1.381-1.944-1.079-1.323-2.288-2.535-2.793-3.04z"/></symbol><symbol id="icon-flow-16"><path fill-rule="evenodd" clip-rule="evenodd" d="M2 2.7a.7.7 0 01.7-.7h1.6a.7.7 0 01.7.7V3h2.5A1.5 1.5 0 019 4.5v.793L10.707 7H13.3a.7.7 0 01.7.7v3.385A1.5 1.5 0 1112.085 13h-5.17A1.5 1.5 0 015.5 14h-3c-.404 0-.775-.188-1.038-.446A1.494 1.494 0 011 12.5 1.5 1.5 0 012.5 11H3V7.7a.7.7 0 01.7-.7h2.593L8 5.293V4.5a.5.5 0 00-.5-.5H5v.3a.7.7 0 01-.7.7H2.7a.7.7 0 01-.7-.7V2.7zm2 .8V3H3v1h1v-.5zm4.5 2.707L7.207 7.5 8.5 8.793 9.793 7.5 8.5 6.207zM10.707 8L8.995 9.712a.7.7 0 01-.99 0L6.293 8H4v3h1.5a1.5 1.5 0 011.415 1h5.17c.151-.426.489-.764.915-.915V8h-2.293zM2.5 12a.5.5 0 00-.5.5c0 .105.052.232.163.34.112.11.241.16.337.16h3a.5.5 0 000-1h-3zm11 0a.5.5 0 100 1 .5.5 0 000-1z"/></symbol><symbol id="icon-gift-16"><path fill-rule="evenodd" clip-rule="evenodd" d="M7.227 4.017c.252.188.273.308.273.312v.651c-.636-.04-1.258-.158-1.716-.359-.29-.126-.47-.267-.564-.4-.08-.112-.117-.242-.068-.437.026-.104.091-.186.292-.234.22-.052.538-.037.887.055.345.09.67.243.896.412zm1.273.312v.651c.636-.04 1.258-.158 1.716-.359.289-.126.47-.267.564-.4.08-.112.117-.242.068-.437-.026-.104-.091-.186-.292-.234-.22-.052-.538-.037-.887.055-.345.09-.67.243-.896.412-.253.188-.273.308-.273.312zM8 3.36a2.418 2.418 0 00-.175-.144 3.7 3.7 0 00-1.24-.578c-.442-.116-.937-.164-1.373-.06-.455.109-.89.401-1.03.964-.118.472-.03.904.223 1.26.05.07.103.134.162.195H2.5a.5.5 0 100 1H3v5.5a1.5 1.5 0 001.5 1.5h7a1.5 1.5 0 001.5-1.5v-5.5h.5a.5.5 0 000-1h-2.067c.059-.06.113-.126.162-.195.253-.356.341-.788.223-1.26-.14-.563-.575-.855-1.03-.964-.436-.104-.931-.056-1.374.06a3.7 3.7 0 00-1.239.578A2.415 2.415 0 008 3.358zm-4 8.137v-5.5h3.5v6h-3a.5.5 0 01-.5-.5zm4.5.5v-6H12v5.5a.5.5 0 01-.5.5h-3z"/></symbol><symbol id="icon-gift-24"><path fill-rule="evenodd" clip-rule="evenodd" d="M11.887 3.128c.037.028.075.057.113.088.038-.031.076-.06.113-.088.55-.41 1.249-.724 1.945-.908.687-.18 1.474-.26 2.181-.091.747.178 1.491.67 1.731 1.628A2.582 2.582 0 0117.52 6H20a1 1 0 110 2H4a1 1 0 010-2h2.48a2.582 2.582 0 01-.45-2.243c.24-.959.984-1.45 1.73-1.628.708-.169 1.496-.09 2.182.091.696.184 1.396.499 1.945.908zm3.29 2.228c-.583.292-1.363.494-2.177.587V5.041l.001-.002c.014-.025.075-.135.308-.309.31-.23.767-.447 1.258-.576.501-.132.933-.146 1.21-.08.226.053.242.12.251.162l.002.006a.587.587 0 01-.08.515c-.12.18-.363.393-.772.598zm-6.355 0c.584.292 1.364.494 2.178.587V5.041l-.001-.002c-.014-.025-.075-.135-.308-.309-.31-.23-.766-.447-1.258-.576-.501-.132-.933-.146-1.21-.08-.226.053-.242.12-.251.162l-.002.006a.587.587 0 00.08.515c.12.18.363.393.772.598zM5 9a1 1 0 00-1 1v10a1 1 0 001 1h14a1 1 0 001-1V10a1 1 0 00-1-1H5zm1 10v-8h5v8H6zm7 0v-8h5v8h-5z"/></symbol><symbol id="icon-graph-16"><path fill-rule="evenodd" clip-rule="evenodd" d="M4.5 2A2.5 2.5 0 002 4.5v7A2.5 2.5 0 004.5 14h7a2.5 2.5 0 002.5-2.5v-7A2.5 2.5 0 0011.5 2h-7zM3 4.5A1.5 1.5 0 014.5 3h7A1.5 1.5 0 0113 4.5v.793L8.854 9.439a.5.5 0 01-.708 0L6.561 7.854a1.5 1.5 0 00-2.122 0L3 9.293V4.5zm0 6.207v.793A1.5 1.5 0 004.5 13h7a1.5 1.5 0 001.5-1.5V6.707l-3.44 3.44a1.5 1.5 0 01-2.12 0L5.853 8.56a.5.5 0 00-.708 0L3 10.707z"/></symbol><symbol id="icon-graph-24"><path fill-rule="evenodd" clip-rule="evenodd" d="M6 3a3 3 0 00-3 3v12a3 3 0 003 3h12a3 3 0 003-3V6a3 3 0 00-3-3H6zM5 6a1 1 0 011-1h12a1 1 0 011 1v2.54l-5.433 4.657a1 1 0 01-1.25.04l-1.478-1.107a3 3 0 00-3.674.057L5 13.919V6zm0 10.48V18a1 1 0 001 1h12a1 1 0 001-1v-6.826l-4.131 3.541a3 3 0 01-3.752.122L9.64 13.73a1 1 0 00-1.225.019L5 16.48z"/></symbol><symbol id="icon-group-16"><path fill-rule="evenodd" clip-rule="evenodd" d="M4.5 3A1.5 1.5 0 003 4.5v1A1.5 1.5 0 004.5 7h1A1.5 1.5 0 007 5.5v-1A1.5 1.5 0 005.5 3h-1zM4 4.5a.5.5 0 01.5-.5h1a.5.5 0 01.5.5v1a.5.5 0 01-.5.5h-1a.5.5 0 01-.5-.5v-1zM10.5 3A1.5 1.5 0 009 4.5v1A1.5 1.5 0 0010.5 7h1A1.5 1.5 0 0013 5.5v-1A1.5 1.5 0 0011.5 3h-1zM10 4.5a.5.5 0 01.5-.5h1a.5.5 0 01.5.5v1a.5.5 0 01-.5.5h-1a.5.5 0 01-.5-.5v-1zm-7 6A1.5 1.5 0 014.5 9h1A1.5 1.5 0 017 10.5v1A1.5 1.5 0 015.5 13h-1A1.5 1.5 0 013 11.5v-1zm1.5-.5a.5.5 0 00-.5.5v1a.5.5 0 00.5.5h1a.5.5 0 00.5-.5v-1a.5.5 0 00-.5-.5h-1zm6-1A1.5 1.5 0 009 10.5v1a1.5 1.5 0 001.5 1.5h1a1.5 1.5 0 001.5-1.5v-1A1.5 1.5 0 0011.5 9h-1zm-.5 1.5a.5.5 0 01.5-.5h1a.5.5 0 01.5.5v1a.5.5 0 01-.5.5h-1a.5.5 0 01-.5-.5v-1z"/></symbol><symbol id="icon-help-16"><path fill-rule="evenodd" clip-rule="evenodd" d="M3 8a5 5 0 1110 0A5 5 0 013 8zm5-6a6 6 0 100 12A6 6 0 008 2zM6.979 6.291c.338-.338.553-.541 1.021-.541a.63.63 0 01.506.316c.084.153.148.457-.219.947-.368.49-.565.876-.67 1.156-.053.14-.082.254-.098.342a1.202 1.202 0 00-.018.15v.015l-.001.007v.005H8l-.5.001a.5.5 0 001.002.004c.005-.027.018-.084.052-.173.066-.177.213-.48.534-.907.546-.729.61-1.456.294-2.03A1.627 1.627 0 008 4.75c-.895 0-1.367.472-1.714.82l-.015.014a.5.5 0 10.708.707zM8 11.333A.667.667 0 108 10a.667.667 0 000 1.333z"/></symbol><symbol id="icon-help-24"><path fill-rule="evenodd" clip-rule="evenodd" d="M5 12a7 7 0 1114 0 7 7 0 01-14 0zm7-9a9 9 0 100 18 9 9 0 000-18zm-1.293 6.707C11.197 9.217 11.44 9 12 9c.143 0 .385.115.497.318a.533.533 0 01.056.34c-.02.157-.101.407-.353.742-.549.732-.85 1.314-1.012 1.75-.082.219-.13.4-.156.543a2.008 2.008 0 00-.032.285v.024c0 .001 0 .002 1-.002l-1 .004a1 1 0 001.998.055c.005-.024.02-.092.063-.207.086-.23.285-.647.739-1.252.843-1.124.971-2.297.45-3.246C13.778 7.5 12.856 7 12 7c-1.415 0-2.17.756-2.68 1.267l-.027.026a1 1 0 001.414 1.414zM12 17a1 1 0 100-2 1 1 0 000 2z"/></symbol><symbol id="icon-info-16"><path fill-rule="evenodd" clip-rule="evenodd" d="M3 8a5 5 0 1110 0A5 5 0 013 8zm5-6a6 6 0 100 12A6 6 0 008 2zm.5 5.5a.5.5 0 00-1 0v3a.5.5 0 001 0v-3zM8 6a.5.5 0 100-1 .5.5 0 000 1z"/></symbol><symbol id="icon-info-24"><path fill-rule="evenodd" clip-rule="evenodd" d="M5 12a7 7 0 1114 0 7 7 0 01-14 0zm7-9a9 9 0 100 18 9 9 0 000-18zm1 8a1 1 0 10-2 0v5a1 1 0 102 0v-5zm-1-2a1 1 0 100-2 1 1 0 000 2z"/></symbol><symbol id="icon-info-filled-24"><path fill-rule="evenodd" clip-rule="evenodd" d="M12 21a9 9 0 100-18 9 9 0 000 18zm1-13a1 1 0 11-2 0 1 1 0 012 0zm0 3a1 1 0 10-2 0v5a1 1 0 102 0v-5z"/></symbol><symbol id="icon-layout-16"><path fill-rule="evenodd" clip-rule="evenodd" d="M3.5 3A1.5 1.5 0 002 4.5v7A1.5 1.5 0 003.5 13h9a1.5 1.5 0 001.5-1.5v-7A1.5 1.5 0 0012.5 3h-9zM3 4.5a.5.5 0 01.5-.5h9a.5.5 0 01.5.5V6H3V4.5zM3 7v4.5a.5.5 0 00.5.5H5V7H3zm3 5h6.5a.5.5 0 00.5-.5V7H6v5z"/></symbol><symbol id="icon-list-16"><path fill-rule="evenodd" clip-rule="evenodd" d="M3.5 5a.5.5 0 100-1 .5.5 0 000 1zm2-1a.5.5 0 000 1h7a.5.5 0 000-1h-7zm0 3a.5.5 0 000 1h7a.5.5 0 000-1h-7zm0 3a.5.5 0 000 1h7a.5.5 0 000-1h-7zM4 7.5a.5.5 0 11-1 0 .5.5 0 011 0zM3.5 11a.5.5 0 100-1 .5.5 0 000 1z"/></symbol><symbol id="icon-list-24"><path fill-rule="evenodd" clip-rule="evenodd" d="M5 9a1 1 0 100-2 1 1 0 000 2zm4-2a1 1 0 000 2h10a1 1 0 100-2H9zm0 4a1 1 0 100 2h10a1 1 0 100-2H9zm-1 5a1 1 0 011-1h10a1 1 0 110 2H9a1 1 0 01-1-1zm-2-4a1 1 0 11-2 0 1 1 0 012 0zm-1 5a1 1 0 100-2 1 1 0 000 2z"/></symbol><symbol id="icon-lock-closed-16"><path fill-rule="evenodd" clip-rule="evenodd" d="M8 2a3 3 0 00-3 3v2h-.5A1.5 1.5 0 003 8.5v4A1.5 1.5 0 004.5 14h7a1.5 1.5 0 001.5-1.5v-4A1.5 1.5 0 0011.5 7H11V5a3 3 0 00-3-3zm2 3v2H6V5a2 2 0 114 0zM4.5 8h7a.5.5 0 01.5.5v4a.5.5 0 01-.5.5h-7a.5.5 0 01-.5-.5v-4a.5.5 0 01.5-.5zM8 9a1 1 0 00-1 1v1a1 1 0 102 0v-1a1 1 0 00-1-1z"/></symbol><symbol id="icon-lock-open-16"><path fill-rule="evenodd" clip-rule="evenodd" d="M8 1a3 3 0 00-3 3v3h-.5A1.5 1.5 0 003 8.5v4A1.5 1.5 0 004.5 14h7a1.5 1.5 0 001.5-1.5v-4A1.5 1.5 0 0011.5 7H6V4a2 2 0 114 0v1.5a.5.5 0 001 0V4a3 3 0 00-3-3zM4 8.5a.5.5 0 01.5-.5h7a.5.5 0 01.5.5v4a.5.5 0 01-.5.5h-7a.5.5 0 01-.5-.5v-4zM8 9a1 1 0 00-1 1v1a1 1 0 102 0v-1a1 1 0 00-1-1z"/></symbol><symbol id="icon-longarrow-16"><path fill-rule="evenodd" clip-rule="evenodd" d="M10.854 4.146a.5.5 0 00-.708.708L12.293 7H2.5a.5.5 0 000 1h9.793l-2.147 2.146a.5.5 0 00.708.708l3-3a.5.5 0 000-.708l-3-3z"/></symbol><symbol id="icon-longarrow-24"><path fill-rule="evenodd" clip-rule="evenodd" d="M16.707 7.293a1 1 0 10-1.414 1.414L17.586 11H4a1 1 0 100 2h13.586l-2.293 2.293a1 1 0 001.414 1.414l4-4a1 1 0 000-1.414l-4-4z"/></symbol><symbol id="icon-mail-16"><path fill-rule="evenodd" clip-rule="evenodd" d="M2.771 3.771C3.217 3.326 3.837 3 4.5 3h7c.663 0 1.283.326 1.729.771.445.446.771 1.066.771 1.729v5c0 .663-.326 1.283-.771 1.729-.446.445-1.066.771-1.729.771h-7c-.663 0-1.283-.326-1.729-.771C2.326 11.783 2 11.163 2 10.5v-5c0-.663.326-1.283.771-1.729zm.26 1.474L8 8.407l4.97-3.162a1.648 1.648 0 00-.449-.766C12.217 4.174 11.837 4 11.5 4h-7c-.337 0-.717.174-1.021.479-.23.23-.386.502-.448.766zM13 6.411L8.268 9.42a.5.5 0 01-.536 0L3 6.412V10.5c0 .337.174.717.479 1.021.304.305.684.479 1.021.479h7c.337 0 .717-.174 1.021-.479.305-.304.479-.684.479-1.021V6.41z"/></symbol><symbol id="icon-mail-24"><path fill-rule="evenodd" clip-rule="evenodd" d="M3 8.015V7.98A4 4 0 017 4h10a4 4 0 014 4.015V15a5 5 0 01-5 5H8a5 5 0 01-5-5V8.015zm2 1.79V15a3 3 0 003 3h8a3 3 0 003-3V9.804l-6.47 4.044a1 1 0 01-1.06 0L5 9.804zm13.934-2.318A2.001 2.001 0 0017 6H7a2 2 0 00-1.934 1.487L12 11.821l6.934-4.334z"/></symbol><symbol id="icon-mailopen-16"><path fill-rule="evenodd" clip-rule="evenodd" d="M8.248 2.066a.5.5 0 00-.496 0L4.348 4.01a7.11 7.11 0 01-.16.088l-.023.012c-.21.114-.72.402-1.183.785a3.662 3.662 0 00-.648.674c-.177.248-.33.561-.334.915V11.5c0 .663.326 1.283.771 1.729.446.445 1.066.771 1.729.771h7c.663 0 1.283-.326 1.729-.771.445-.446.771-1.066.771-1.729V6.51a.43.43 0 000-.025c-.004-.354-.157-.667-.334-.915a3.663 3.663 0 00-.648-.674 7.642 7.642 0 00-1.184-.785l-.022-.012-.16-.088-3.404-1.945zM12.9 6.223a1.28 1.28 0 00-.048-.073 2.683 2.683 0 00-.472-.483 6.647 6.647 0 00-1.02-.676l-.022-.012a8.173 8.173 0 01-.182-.1L8 3.076 4.844 4.879c-.062.036-.125.07-.182.1l-.022.012c-.19.102-.632.355-1.02.676-.195.16-.36.325-.472.483a1.3 1.3 0 00-.048.073L8 8.451l4.9-2.228zM3 7.277V11.5c0 .337.174.717.479 1.021.304.305.684.479 1.021.479h7c.337 0 .717-.174 1.021-.479.305-.304.479-.684.479-1.021V7.277L8.207 9.454a.5.5 0 01-.414 0L3 7.277z"/></symbol><symbol id="icon-mailopen-24"><path fill-rule="evenodd" clip-rule="evenodd" d="M12.479 3.122a1 1 0 00-.958 0L6.032 6.116l-.024.013a8.728 8.728 0 00-1.494 1.066C3.885 7.757 3.013 8.729 3 9.972V16a5 5 0 005 5h8a5 5 0 005-5v-5.98-.048c-.013-1.243-.885-2.215-1.514-2.777a8.726 8.726 0 00-1.494-1.066l-.024-.013-5.49-2.994zm6.348 6.346c-.139-.239-.363-.505-.674-.783a6.759 6.759 0 00-1.125-.803l-.018-.01L12 5.139 6.99 7.872l-.018.01c-.06.032-.606.34-1.125.803-.31.278-.535.544-.674.783L12 12.882l6.827-3.414zM5 11.618V16a3 3 0 003 3h8a3 3 0 003-3v-4.382l-6.553 3.276a1 1 0 01-.894 0L5 11.618z"/></symbol><symbol id="icon-meatballs-16"><path fill-rule="evenodd" clip-rule="evenodd" d="M5 8a1 1 0 11-2 0 1 1 0 012 0zm8 0a1 1 0 11-2 0 1 1 0 012 0zM8 9a1 1 0 100-2 1 1 0 000 2z"/></symbol><symbol id="icon-meatballs-24"><circle cx="5" cy="12" r="2"/><circle cx="12" cy="12" r="2"/><circle cx="19" cy="12" r="2"/></symbol><symbol id="icon-nofilter-16"><path fill-rule="evenodd" clip-rule="evenodd" d="M4.123 3.714c-.3.12-.552.24-.752.345C4.072 4.489 5.463 5 8 5c2.574 0 3.969-.526 4.66-.96a7.514 7.514 0 00-.761-.344C11.006 3.347 9.68 3 8 3c-1.677 0-2.99.36-3.877.714zM8 6c1.151 0 2.104-.1 2.888-.26-.64.647-1.267 1.383-1.556 2.066a.5.5 0 00.922.388c.265-.628.99-1.426 1.783-2.18.383-.363.763-.7 1.084-.984l.008-.007.022-.02c.243-.215.467-.413.621-.565.035-.034.067-.068.097-.101a.504.504 0 00.06-.601.591.591 0 00-.086-.11 1.097 1.097 0 00-.117-.102 3.371 3.371 0 00-.317-.21 7.832 7.832 0 00-1.146-.55C11.268 2.376 9.819 2 8 2c-1.823 0-3.26.39-4.248.786a8.727 8.727 0 00-1.136.547 5.761 5.761 0 00-.382.242l-.023.017-.007.005-.002.002H2.2S2.2 3.6 2.5 4l-.3-.4a.5.5 0 00-.07.737C2.763 5.029 4.423 6 8 6zm-1 4a.5.5 0 00-1 0v1.5a.5.5 0 00.225.418l3.038 2a.5.5 0 00.775-.418V12a.5.5 0 10-1 0v.572L7 11.231V10zM2.263 5.075a.5.5 0 10-.526.85l10.5 6.5a.5.5 0 10.526-.85l-10.5-6.5z"/></symbol><symbol id="icon-nofilter-24"><path fill-rule="evenodd" clip-rule="evenodd" d="M16.997 5.035c.454.206.78.404.988.566C17.233 6.197 15.652 7 12.036 7c-3.803 0-5.355-.889-6.059-1.49.14-.13.38-.303.756-.49C7.815 4.477 9.655 4 12.036 4c1.853 0 3.712.467 4.961 1.035zm-11.172.65v-.002.002zM19.739 6.71l.004-.004a1.47 1.47 0 00.434-1.264c-.061-.428-.293-.767-.509-1.005-.432-.477-1.109-.89-1.843-1.223C16.325 2.533 14.184 2 12.036 2c-2.619 0-4.779.522-6.197 1.23-.69.346-1.307.786-1.666 1.325a1.82 1.82 0 00-.328 1.055 1.6 1.6 0 00.484 1.097C5.356 7.734 7.332 9 12.036 9c1.353 0 2.48-.105 3.424-.278a540.517 540.517 0 00-1.569 1.94l-.126.156-.033.042-.009.01-.002.003.779.627-.78-.626a1 1 0 001.56 1.252l-.78-.626.78.626.003-.003.008-.01.033-.042.125-.155a416.593 416.593 0 011.868-2.308c1.077-1.322 2.159-2.63 2.422-2.897zm-5.213 15.14a1 1 0 01-.973.043l-4-2A1 1 0 019 19.01l1-.01-1 .01v-.086l-.003-.235-.004-.785A97.902 97.902 0 019 15.982 1 1 0 0111 16v2.382l2 1V18a1 1 0 012 0v3a1 1 0 01-.474.85zm5.368-4.404a1 1 0 01-1.341.447l-14-7a1 1 0 11.894-1.788l14 7a1 1 0 01.447 1.341z"/></symbol><symbol id="icon-paper-16"><path fill-rule="evenodd" clip-rule="evenodd" d="M4.5 3a.5.5 0 00-.5.5v9a.5.5 0 00.5.5h7a.5.5 0 00.5-.5V6h-1.5A1.5 1.5 0 019 4.5V3H4.5zm5.5.707V4.5a.5.5 0 00.5.5h.793L10 3.707zM3 3.5A1.5 1.5 0 014.5 2h4.834a.9.9 0 01.637.264l2.765 2.765a.9.9 0 01.264.637V12.5a1.5 1.5 0 01-1.5 1.5h-7A1.5 1.5 0 013 12.5v-9zm2 1a.5.5 0 01.5-.5h1a.5.5 0 010 1h-1a.5.5 0 01-.5-.5zm0 3a.5.5 0 01.5-.5h3a.5.5 0 010 1h-3a.5.5 0 01-.5-.5zm0 2a.5.5 0 01.5-.5h5a.5.5 0 010 1h-5a.5.5 0 01-.5-.5zm0 2a.5.5 0 01.5-.5h4a.5.5 0 010 1h-4a.5.5 0 01-.5-.5z"/></symbol><symbol id="icon-paper-clock-16"><path fill-rule="evenodd" clip-rule="evenodd" d="M4.5 3a.5.5 0 00-.5.5v9a.5.5 0 00.5.5h3.837A3.5 3.5 0 0112 8.035V6h-1.5A1.5 1.5 0 019 4.5V3H4.5zm5 10a2.5 2.5 0 104-3 2.5 2.5 0 00-4 3zm-5 1h4.55A3.5 3.5 0 1013 8.337V5.666a.9.9 0 00-.264-.637L9.971 2.264A.9.9 0 009.334 2H4.5A1.5 1.5 0 003 3.5v9A1.5 1.5 0 004.5 14zM10 3.707V4.5a.5.5 0 00.5.5h.793L10 3.707zM5 4.5a.5.5 0 01.5-.5h1a.5.5 0 010 1h-1a.5.5 0 01-.5-.5zm0 3a.5.5 0 01.5-.5h3a.5.5 0 010 1h-3a.5.5 0 01-.5-.5zm0 2a.5.5 0 01.5-.5h1a.5.5 0 010 1h-1a.5.5 0 01-.5-.5zm0 2a.5.5 0 01.5-.5h1a.5.5 0 010 1h-1a.5.5 0 01-.5-.5zm7-1.5a.5.5 0 00-1 0v1.5a.5.5 0 00.146.354l1 1a.5.5 0 00.708-.708L12 11.293V10z"/></symbol><symbol id="icon-pause-16"><path fill-rule="evenodd" clip-rule="evenodd" d="M5.5 4A1.5 1.5 0 017 5.5v5a1.5 1.5 0 01-3 0v-5A1.5 1.5 0 015.5 4zM6 5.5a.5.5 0 00-1 0v5a.5.5 0 001 0v-5zM10.5 4A1.5 1.5 0 0112 5.5v5a1.5 1.5 0 01-3 0v-5A1.5 1.5 0 0110.5 4zm.5 1.5a.5.5 0 00-1 0v5a.5.5 0 001 0v-5z"/></symbol><symbol id="icon-pause-24"><path fill-rule="evenodd" clip-rule="evenodd" d="M8.5 6A2.5 2.5 0 0111 8.5v7a2.5 2.5 0 01-5 0v-7A2.5 2.5 0 018.5 6zM9 8.5a.5.5 0 00-1 0v7a.5.5 0 001 0v-7zM15.5 6A2.5 2.5 0 0118 8.5v7a2.5 2.5 0 01-5 0v-7A2.5 2.5 0 0115.5 6zm.5 2.5a.5.5 0 00-1 0v7a.5.5 0 001 0v-7z"/></symbol><symbol id="icon-pause-filled-24"><rect width="3" height="10" rx="1" transform="matrix(-1 0 0 1 11 7)"/><rect width="3" height="10" rx="1" transform="matrix(-1 0 0 1 16 7)"/></symbol><symbol id="icon-pencil-16"><path fill-rule="evenodd" clip-rule="evenodd" d="M10.208 3.501c.782-.726 1.714-.598 2.302-.01.587.587.715 1.519-.011 2.3l-2.29-2.29zm-.708.706L4.707 9 7 11.293 11.793 6.5 9.5 4.207zm-3.426 7.574L4.22 9.926l-.928 2.783 2.783-.928zm7.143-8.998c-.974-.973-2.574-1.133-3.78.072l-5.79 5.791a.5.5 0 00-.121.196l-1.5 4.5a.5.5 0 00.632.632l4.5-1.5a.5.5 0 00.196-.12l5.79-5.791c1.206-1.206 1.046-2.806.073-3.78z"/></symbol><symbol id="icon-pencil-24"><path fill-rule="evenodd" clip-rule="evenodd" d="M17.081 5.333a1.121 1.121 0 011.586 1.586l-1.374 1.374-1.586-1.586 1.374-1.374zm-3.374 3.374L6.374 16.04l-.793 2.379 2.379-.793 7.333-7.333-1.586-1.586zm6.374-4.788a3.121 3.121 0 00-4.414 0L4.793 14.793a1 1 0 00-.242.39l-1.5 4.5a1 1 0 001.265 1.266l4.5-1.5a1 1 0 00.391-.242L20.081 8.333a3.121 3.121 0 000-4.414z"/></symbol><symbol id="icon-pencil-filled-16"><path fill-rule="evenodd" clip-rule="evenodd" d="M6.506 12.213L3.787 9.494l-1.76 4.085a.3.3 0 00.394.394l4.085-1.76zM4.354 8.646l3 3 4.792-4.792-3-3-4.792 4.792zm5.5-5.5l3 3 .44-.44c1-1 .862-2.285.073-3.073-.788-.789-2.072-.928-3.072.072l-.441.441z"/></symbol><symbol id="icon-pencil-filled-24"><path fill-rule="evenodd" clip-rule="evenodd" d="M20.498 8.498l-7.923 7.922a.499.499 0 01-.174.113L8.673 17.97a.5.5 0 01-.646-.647l1.435-3.728a.5.5 0 01.113-.174l10.8-10.799a2.121 2.121 0 113 3l-1.377 1.377L19 4l-1.5 1.5 2.998 2.998z"/></symbol><symbol id="icon-people-16"><path fill-rule="evenodd" clip-rule="evenodd" d="M5.5 4.5c0-.458.151-.828.394-1.08C6.134 3.17 6.499 3 7 3c.5 0 .866.17 1.106.42.243.252.394.622.394 1.08 0 .458-.151.828-.394 1.08C7.866 5.83 7.501 6 7 6c-.5 0-.866-.17-1.106-.42-.243-.252-.394-.622-.394-1.08zM7 7c.742 0 1.377-.26 1.826-.726.446-.463.674-1.093.674-1.774 0-.68-.228-1.311-.674-1.774C8.377 2.26 7.742 2 7 2s-1.377.26-1.826.726C4.728 3.189 4.5 3.819 4.5 4.5c0 .68.228 1.311.674 1.774.034.036.07.07.107.104A5.4 5.4 0 003.54 7.63C2.621 8.614 2 9.967 2 11.437c0 .449.133.856.397 1.205.26.342.626.602 1.06.798.859.387 2.068.56 3.543.56 1 0 1.87-.08 2.59-.247.715-.167 1.319-.428 1.748-.821a.5.5 0 10-.676-.738c-.253.232-.672.439-1.298.585C8.742 12.924 7.954 13 7 13c-1.425 0-2.465-.171-3.132-.472-.328-.147-.543-.317-.674-.49a.955.955 0 01-.194-.6c0-1.188.504-2.304 1.271-3.124C5.042 7.49 6.042 7 7 7zm4.5-2a.5.5 0 100 1 .5.5 0 000-1zm1.167 1.442a1.5 1.5 0 10-2.334 0 3.126 3.126 0 00-.618.666A4.05 4.05 0 009 9.375c0 .572.29 1.014.775 1.281.447.248 1.047.344 1.725.344.678 0 1.278-.096 1.725-.344.484-.268.775-.709.775-1.281a4.05 4.05 0 00-.715-2.267 3.126 3.126 0 00-.618-.666zM11.5 7c-.264 0-.633.204-.965.68A3.05 3.05 0 0010 9.375c0 .178.065.299.259.406.23.128.63.219 1.241.219.61 0 1.01-.091 1.241-.219.194-.107.259-.228.259-.406a3.05 3.05 0 00-.535-1.695c-.332-.476-.7-.68-.965-.68z"/></symbol><symbol id="icon-people-24"><path fill-rule="evenodd" clip-rule="evenodd" d="M7 7a2 2 0 114 0 2 2 0 01-4 0zm4.894 2.761a4 4 0 10-5.773.015c-.74.41-1.417.961-1.994 1.61A8.485 8.485 0 002 17c0 .688.187 1.328.573 1.883.379.546.914.959 1.536 1.264C5.329 20.747 7.01 21 9 21c1.99 0 3.671-.253 4.891-.853.622-.305 1.157-.718 1.537-1.264A3.245 3.245 0 0016 17a1 1 0 10-2 0c0 .312-.08.547-.215.742-.142.204-.382.416-.777.61-.813.4-2.132.648-4.008.648s-3.195-.247-4.008-.647c-.395-.195-.635-.407-.777-.611A1.248 1.248 0 014 17c0-1.674.65-3.19 1.623-4.286C6.603 11.61 7.847 11 9 11c.795 0 1.668.287 2.426.819a1 1 0 001.148-1.638 6.81 6.81 0 00-.68-.42zm4.791.928A2.742 2.742 0 0016 12.5c0 .06.012.077.018.085a.515.515 0 00.198.143c.305.15.874.272 1.784.272s1.479-.122 1.784-.272a.515.515 0 00.198-.142v-.001c.006-.008.018-.025.018-.085 0-.707-.275-1.35-.685-1.81-.418-.471-.912-.69-1.315-.69-.403 0-.897.219-1.315.69zm2.794-2.343a2 2 0 10-2.958 0c-.506.243-.96.597-1.331 1.015A4.742 4.742 0 0014 12.5c0 .438.12.86.376 1.227.249.358.59.615.958.795.712.35 1.643.478 2.666.478s1.954-.128 2.666-.478c.368-.18.71-.437.958-.795.256-.368.376-.789.376-1.227a4.742 4.742 0 00-1.19-3.139 4.257 4.257 0 00-1.331-1.015z"/></symbol><symbol id="icon-person-16"><path fill-rule="evenodd" clip-rule="evenodd" d="M6.5 4.5c0-.458.151-.828.394-1.08C7.134 3.17 7.499 3 8 3c.5 0 .866.17 1.106.42.243.252.394.622.394 1.08 0 .458-.151.828-.394 1.08C8.866 5.83 8.501 6 8 6c-.5 0-.866-.17-1.106-.42-.243-.252-.394-.622-.394-1.08zm3.22 1.878c.036-.034.072-.068.106-.104.446-.463.674-1.093.674-1.774 0-.68-.228-1.311-.674-1.774C9.377 2.26 8.742 2 8 2s-1.377.26-1.826.726C5.728 3.189 5.5 3.819 5.5 4.5c0 .68.228 1.311.674 1.774.034.036.07.07.107.104A5.4 5.4 0 004.54 7.63C3.621 8.614 3 9.967 3 11.437c0 .449.133.856.397 1.205.26.342.626.602 1.06.798.859.387 2.068.56 3.543.56s2.684-.173 3.543-.56c.434-.196.8-.456 1.06-.798.264-.349.397-.756.397-1.204 0-1.47-.621-2.824-1.541-3.807a5.4 5.4 0 00-1.74-1.253zM8 7c-.958 0-1.958.49-2.729 1.314C4.504 9.134 4 10.25 4 11.437c0 .24.067.434.194.6.131.174.346.344.674.491.667.3 1.707.472 3.132.472s2.465-.171 3.132-.472c.328-.147.543-.317.674-.49a.955.955 0 00.194-.6c0-1.188-.504-2.304-1.271-3.124C9.958 7.49 8.958 7 8 7z"/></symbol><symbol id="icon-person-24"><path fill-rule="evenodd" clip-rule="evenodd" d="M10 7a2 2 0 114 0 2 2 0 01-4 0zm4.88 2.777a4 4 0 10-5.759 0c-.74.408-1.417.96-1.994 1.61A8.485 8.485 0 005 17c0 .688.187 1.328.573 1.883.379.546.914.959 1.536 1.264 1.22.6 2.901.853 4.891.853 1.99 0 3.671-.253 4.891-.853.622-.305 1.157-.718 1.537-1.264A3.245 3.245 0 0019 17c0-2.192-.85-4.175-2.127-5.614a7.608 7.608 0 00-1.994-1.61zM12 11c-1.153 0-2.397.61-3.377 1.714A6.485 6.485 0 007 17c0 .312.08.547.215.742.142.204.382.416.777.61.813.4 2.132.648 4.008.648s3.195-.247 4.009-.647c.394-.195.634-.407.776-.611.135-.195.215-.43.215-.742 0-1.674-.65-3.19-1.623-4.286C14.397 11.61 13.153 11 12 11z"/></symbol><symbol id="icon-pin-16"><path fill-rule="evenodd" clip-rule="evenodd" d="M4 7c0-1.23.369-2.22 1.023-2.9C5.674 3.423 6.659 3 8 3c1.34 0 2.326.423 2.977 1.1C11.631 4.78 12 5.77 12 7c0 .559-.195 1.22-.534 1.919a11.347 11.347 0 01-1.29 2.018 11.729 11.729 0 01-1.442 1.544c-.218.19-.407.33-.556.422a1.1 1.1 0 01-.178.09 1.1 1.1 0 01-.178-.09 4.312 4.312 0 01-.556-.422 11.73 11.73 0 01-1.442-1.544 11.347 11.347 0 01-1.29-2.018C4.194 8.219 4 7.559 4 7zm4-5c-1.559 0-2.824.498-3.698 1.407C3.432 4.312 3 5.572 3 7c0 .77.262 1.587.634 2.355.374.774.879 1.534 1.404 2.201a12.722 12.722 0 001.572 1.68c.243.211.48.391.693.52.19.116.442.244.697.244.255 0 .508-.128.697-.243.214-.13.45-.31.693-.522a12.722 12.722 0 001.572-1.679 12.352 12.352 0 001.405-2.201C12.738 8.587 13 7.77 13 7c0-1.428-.431-2.688-1.302-3.593C10.824 2.498 9.558 2 8 2zm0 6a1 1 0 100-2 1 1 0 000 2z"/></symbol><symbol id="icon-pin-24"><path fill-rule="evenodd" clip-rule="evenodd" d="M7 10c0-1.754.481-2.967 1.257-3.743C9.033 5.481 10.247 5 12 5c1.754 0 2.966.481 3.743 1.257C16.519 7.033 17 8.247 17 10c0 .777-.25 1.744-.699 2.803-.443 1.047-1.053 2.12-1.705 3.088-.653.97-1.331 1.809-1.898 2.394-.284.293-.52.503-.698.632a5.791 5.791 0 01-.698-.632c-.567-.585-1.245-1.425-1.898-2.394-.652-.968-1.262-2.04-1.705-3.088C7.25 11.743 7 10.777 7 10zm4.821 9.028l.007-.002a.043.043 0 01-.007.002zm.356 0l-.005-.002a.043.043 0 00.007.002h-.002zM12 3c-2.112 0-3.9.586-5.157 1.843C5.586 6.101 5 7.888 5 10c0 1.156.358 2.406.857 3.584.505 1.19 1.182 2.376 1.888 3.424s1.457 1.983 2.12 2.669c.331.34.659.64.964.861.153.111.32.216.493.298.16.075.4.164.678.164s.517-.089.678-.164c.174-.081.34-.187.493-.298.305-.221.633-.52.963-.861.664-.686 1.415-1.621 2.12-2.669.707-1.048 1.384-2.234 1.889-3.424.499-1.178.857-2.428.857-3.584 0-2.112-.586-3.9-1.843-5.157C15.899 3.586 14.112 3 12 3zm0 5a2 2 0 100 4 2 2 0 000-4z"/></symbol><symbol id="icon-planner-16"><path fill-rule="evenodd" clip-rule="evenodd" d="M5 1.5a.5.5 0 00-1 0v.635c-.45.13-.848.355-1.171.675C2.281 3.35 2 4.114 2 5v6c0 .886.281 1.649.829 2.19.547.54 1.308.81 2.171.81h6c.863 0 1.624-.27 2.171-.81.548-.541.829-1.303.829-2.19V5c0-.886-.281-1.649-.829-2.19A2.723 2.723 0 0012 2.135V1.5a.5.5 0 00-1 0V2H5v-.5zM3.532 3.52c.247-.243.591-.419 1.032-.488A2.841 2.841 0 015 3h6a2.84 2.84 0 01.436.032c.441.07.785.244 1.032.489.323.319.532.806.532 1.479v6c0 .673-.21 1.16-.532 1.48-.323.319-.812.52-1.468.52H5c-.656 0-1.145-.201-1.468-.52C3.209 12.16 3 11.672 3 11V5c0-.673.21-1.16.532-1.48zM4.5 4a.5.5 0 000 1h3a.5.5 0 000-1h-3zm2 2a.5.5 0 000 1h3a.5.5 0 000-1h-3zm-1 2a.5.5 0 000 1h6a.5.5 0 000-1h-6zm4 2a.5.5 0 000 1h2a.5.5 0 000-1h-2z"/></symbol><symbol id="icon-planner-24"><path fill-rule="evenodd" clip-rule="evenodd" d="M8 2a1 1 0 00-2 0v1.416A5.001 5.001 0 003 8v8a5 5 0 005 5h8a5 5 0 005-5V8a5.001 5.001 0 00-3-4.584V2a1 1 0 10-2 0v1H8V2zM5 8c0-1.397.955-2.572 2.248-2.905h.003C7.491 5.032 7.741 5 8 5h8c.258 0 .508.033.747.094l.006.001A3.001 3.001 0 0119 8v8a3 3 0 01-3 3H8a3 3 0 01-3-3V8zm3-1a1 1 0 000 2h3a1 1 0 100-2H8zm3 4a1 1 0 100 2h5a1 1 0 100-2h-5zm-2 4a1 1 0 100 2h4a1 1 0 100-2H9z"/></symbol><symbol id="icon-play-16"><path fill-rule="evenodd" clip-rule="evenodd" d="M5.251 4.066a.5.5 0 01.5.002l6 3.5a.5.5 0 010 .864l-6 3.5A.5.5 0 015 11.5v-7a.5.5 0 01.251-.434zM6 5.371v5.258L10.508 8 6 5.37z"/></symbol><symbol id="icon-play-24"><path fill-rule="evenodd" clip-rule="evenodd" d="M7.493 6.138a1 1 0 01.993-.012l9 5a1 1 0 010 1.748l-9 5A1 1 0 017 17V7a1 1 0 01.493-.862zM9 8.7v6.6l5.94-3.3L9 8.7z"/></symbol><symbol id="icon-play-filled-24"><path d="M16.39 11.122L8.48 6.807A1 1 0 007 7.685v8.63a1 1 0 001.479.878l7.912-4.315a1 1 0 000-1.756z"/></symbol><symbol id="icon-removeperson-16"><path fill-rule="evenodd" clip-rule="evenodd" d="M4.5 4.5c0-.458.151-.828.394-1.08C5.134 3.17 5.499 3 6 3c.5 0 .866.17 1.106.42.243.252.394.622.394 1.08 0 .458-.151.828-.394 1.08C6.866 5.83 6.501 6 6 6c-.5 0-.866-.17-1.106-.42-.243-.252-.394-.622-.394-1.08zm3.326 1.774c-.034.036-.07.07-.107.104A5.4 5.4 0 019.46 7.63c.92.983 1.541 2.336 1.541 3.806 0 .449-.133.856-.397 1.205-.26.342-.626.602-1.06.798-.859.387-2.068.56-3.543.56s-2.684-.173-3.543-.56c-.434-.196-.8-.456-1.06-.798A1.954 1.954 0 011 11.438c0-1.47.621-2.824 1.541-3.807a5.4 5.4 0 011.74-1.253 2.265 2.265 0 01-.107-.104C3.728 5.811 3.5 5.181 3.5 4.5c0-.68.228-1.311.674-1.774C4.623 2.26 5.258 2 6 2s1.377.26 1.826.726c.446.463.674 1.093.674 1.774 0 .68-.228 1.311-.674 1.774zm-4.555 2.04C4.042 7.49 5.042 7 6 7c.958 0 1.958.49 2.729 1.314.767.82 1.271 1.936 1.271 3.123 0 .24-.067.434-.194.6-.131.174-.346.344-.674.491-.667.3-1.707.472-3.132.472s-2.465-.171-3.132-.472c-.328-.147-.543-.317-.674-.49a.955.955 0 01-.194-.6c0-1.188.504-2.304 1.271-3.124zM10.5 5a.5.5 0 000 1h4a.5.5 0 000-1h-4z"/></symbol><symbol id="icon-removeperson-24"><path fill-rule="evenodd" clip-rule="evenodd" d="M9 5a2 2 0 100 4 2 2 0 000-4zm4 2a3.987 3.987 0 01-1.12 2.777c.74.408 1.416.96 1.993 1.61A8.485 8.485 0 0116 17c0 .688-.187 1.328-.572 1.883-.38.546-.915.959-1.537 1.264-1.22.6-2.901.853-4.891.853-1.99 0-3.671-.253-4.891-.853-.622-.305-1.157-.718-1.536-1.264A3.244 3.244 0 012 17c0-2.192.85-4.175 2.127-5.614a7.607 7.607 0 011.994-1.61A4 4 0 1113 7zm-7.377 5.714C6.603 11.61 7.847 11 9 11c1.153 0 2.397.61 3.377 1.714A6.485 6.485 0 0114 17c0 .312-.08.547-.215.742-.142.204-.382.416-.777.61-.813.4-2.132.648-4.008.648s-3.195-.247-4.008-.647c-.395-.195-.635-.407-.777-.611A1.248 1.248 0 014 17c0-1.674.65-3.19 1.623-4.286zM16 8a1 1 0 100 2h4a1 1 0 100-2h-4z"/></symbol><symbol id="icon-robot-16"><path fill-rule="evenodd" clip-rule="evenodd" d="M7 2.5a.5.5 0 01.5-.5h1a.5.5 0 010 1h-1a.5.5 0 01-.5-.5zM2.5 7H3v.5c0 .033.001.065.003.097C2.386 7.854 2 8.591 2 9.5v3a.5.5 0 001 0v-.75c.126.047.253.084.376.112.595.138 1.266.138 1.61.138H5v1.5a.5.5 0 001 0V12h4v1.5a.5.5 0 001 0V12h.014c.344 0 1.015 0 1.61-.138.123-.028.25-.065.376-.111v.749a.5.5 0 001 0v-3c0-.909-.386-1.646-1.003-1.903.002-.032.003-.064.003-.097V7h.5a.5.5 0 000-1h-.55a2.5 2.5 0 00-2.45-2h-5a2.5 2.5 0 00-2.45 2H2.5a.5.5 0 000 1zM13 10.5v-1c0-.595-.189-.844-.34-.942a1.58 1.58 0 01-.71.373A1.499 1.499 0 0111.5 9h-7a1.5 1.5 0 01-.45-.069 1.58 1.58 0 01-.71-.373c-.151.098-.34.347-.34.942v1c0 .072.022.123.1.184.098.076.265.149.503.204.473.11 1.041.112 1.397.112h6c.356 0 .924-.002 1.397-.112.238-.055.405-.128.502-.204.08-.062.101-.112.101-.184zM4.322 7.967A.5.5 0 014 7.5v-1A1.5 1.5 0 015.5 5h5A1.5 1.5 0 0112 6.5v1a.5.5 0 01-.322.467c-.154.03-.35.033-.678.033H5c-.329 0-.524-.002-.678-.033zM6.5 7a.5.5 0 100-1 .5.5 0 000 1zm3.5-.5a.5.5 0 11-1 0 .5.5 0 011 0z"/></symbol><symbol id="icon-robot-24"><path fill-rule="evenodd" clip-rule="evenodd" d="M12 4a1 1 0 100-2 1 1 0 000 2zM4.1 9A5.002 5.002 0 019 5h6a5.002 5.002 0 014.9 4h.1a1 1 0 110 2v1c0 .2-.02.396-.057.586.561.758 1.057 1.763 1.057 2.914V19a1 1 0 11-2 0v-.314c-.215.06-.426.105-.623.141-.843.152-1.733.173-2.377.173v2a1 1 0 11-2 0v-2h-4v2a1 1 0 11-2 0v-2c-.644 0-1.534-.02-2.377-.173A6.845 6.845 0 015 18.686V19a1 1 0 11-2 0v-3.5c0-1.15.496-2.155 1.057-2.914A3.014 3.014 0 014 12v-1a1 1 0 110-2h.1zM9 17h7c.62 0 1.362-.022 2.02-.141.466-.084.782-.199.98-.312V15.5c0-.335-.087-.676-.238-1.01a3.456 3.456 0 01-.417.192A2.987 2.987 0 0117 15H7c-.484 0-.94-.114-1.345-.318a3.456 3.456 0 01-.417-.193A2.456 2.456 0 005 15.5v1.047c.198.113.514.228.98.312.658.119 1.4.141 2.02.141h1zm-3-5a1 1 0 00.477.853c.354.112.828.147 1.523.147h8c.695 0 1.169-.035 1.523-.147A1 1 0 0018 12v-2a3 3 0 00-3-3H9a3 3 0 00-3 3v2zm3-1a1 1 0 100-2 1 1 0 000 2zm7-1a1 1 0 11-2 0 1 1 0 012 0z"/></symbol><symbol id="icon-robot-filled-16"><path fill-rule="evenodd" clip-rule="evenodd" d="M7 2.5a.5.5 0 01.5-.5h1a.5.5 0 010 1h-1a.5.5 0 01-.5-.5zM2.5 7H3v.5c0 .033.001.065.003.097C2.386 7.854 2 8.591 2 9.5v3a.5.5 0 001 0v-1.642c0 1.002 1.264 1.125 2 1.14V13.5a.5.5 0 001 0V12h4v1.5a.5.5 0 001 0v-1.502c.736-.015 2-.138 2-1.14V12.5a.5.5 0 001 0v-3c0-.909-.386-1.646-1.003-1.903.002-.032.003-.064.003-.097V7h.5a.5.5 0 000-1h-.55a2.5 2.5 0 00-2.45-2h-5a2.5 2.5 0 00-2.45 2H2.5a.5.5 0 000 1zm1.822.967A.5.5 0 014 7.5v-1A1.5 1.5 0 015.5 5h5A1.5 1.5 0 0112 6.5v1a.5.5 0 01-.322.467c-.154.03-.35.033-.678.033H5c-.329 0-.524-.002-.678-.033zM6.5 7a.5.5 0 100-1 .5.5 0 000 1zm3.5-.5a.5.5 0 11-1 0 .5.5 0 011 0z"/></symbol><symbol id="icon-robot-filled-24"><path fill-rule="evenodd" clip-rule="evenodd" d="M12 4a1 1 0 100-2 1 1 0 000 2zM4.1 9A5.002 5.002 0 019 5h6a5.002 5.002 0 014.9 4h.1a1 1 0 110 2v1c0 .2-.02.396-.057.586.561.758 1.057 1.763 1.057 2.914V19a1 1 0 11-2 0v-1c-.551.786-1.924.96-3 .993V21a1 1 0 11-2 0v-2h-4v2a1 1 0 11-2 0v-2.007c-1.077-.034-2.449-.207-3-.993v1a1 1 0 11-2 0v-3.5c0-1.15.496-2.155 1.057-2.914A3.014 3.014 0 014 12v-1a1 1 0 110-2h.1zM6 12a1 1 0 00.477.853c.354.112.828.147 1.523.147h8c.695 0 1.169-.035 1.523-.147A1 1 0 0018 12v-2a3 3 0 00-3-3H9a3 3 0 00-3 3v2zm3-1a1 1 0 100-2 1 1 0 000 2zm7-1a1 1 0 11-2 0 1 1 0 012 0z"/></symbol><symbol id="icon-roundarrow-16"><path fill-rule="evenodd" clip-rule="evenodd" d="M14 5.5a.5.5 0 00-1 0v2.793l-.646-.647c-2.862-2.861-7.346-2.861-10.208 0a.5.5 0 10.708.708c2.471-2.472 6.321-2.472 8.792 0l.647.646H9.5a.5.5 0 000 1h4a.499.499 0 00.351-.144l.005-.005A.5.5 0 0014 9.503V5.5z"/></symbol><symbol id="icon-roundarrow-24"><path fill-rule="evenodd" clip-rule="evenodd" d="M4.707 12.707c3.61-3.61 8.976-3.61 12.586 0l.293.293H15a1 1 0 100 2h5.003A.997.997 0 0021 14V9a1 1 0 10-2 0v2.586l-.293-.293L18 12l.707-.707c-4.39-4.39-11.024-4.39-15.414 0a1 1 0 101.414 1.414z"/></symbol><symbol id="icon-search-16"><path fill-rule="evenodd" clip-rule="evenodd" d="M3 7.5C3 4.912 4.912 3 7.5 3S12 4.912 12 7.5 10.088 12 7.5 12 3 10.088 3 7.5zM7.5 2C4.36 2 2 4.36 2 7.5S4.36 13 7.5 13c1.381 0 2.612-.457 3.557-1.236l2.09 2.09a.5.5 0 00.707-.708l-2.09-2.09C12.544 10.113 13 8.882 13 7.5 13 4.36 10.64 2 7.5 2z"/></symbol><symbol id="icon-search-24"><path fill-rule="evenodd" clip-rule="evenodd" d="M5 11a6 6 0 1112 0 6 6 0 01-12 0zm6-8a8 8 0 104.906 14.32l3.387 3.387a1 1 0 001.414-1.414l-3.387-3.387A8 8 0 0011 3z"/></symbol><symbol id="icon-sheet-16"><path fill-rule="evenodd" clip-rule="evenodd" d="M4.5 4a.5.5 0 00-.5.5v1a.5.5 0 00.5.5h1a.5.5 0 00.5-.5v-1a.5.5 0 00-.5-.5h-1zm3 3a.5.5 0 00-.5.5v1a.5.5 0 00.5.5h1a.5.5 0 00.5-.5v-1a.5.5 0 00-.5-.5h-1zm3 3a.5.5 0 00-.5.5v1a.5.5 0 00.5.5h1a.5.5 0 00.5-.5v-1a.5.5 0 00-.5-.5h-1zm2.118-.5c.238-.265.382-.616.382-1v-1c0-.384-.144-.735-.382-1 .238-.265.382-.616.382-1v-1A1.5 1.5 0 0011.5 3h-1c-.384 0-.735.144-1 .382A1.494 1.494 0 008.5 3h-1c-.384 0-.735.144-1 .382A1.494 1.494 0 005.5 3h-1A1.5 1.5 0 003 4.5v1c0 .384.144.735.382 1A1.494 1.494 0 003 7.5v1c0 .384.144.735.382 1a1.494 1.494 0 00-.382 1v1A1.5 1.5 0 004.5 13h1c.384 0 .735-.144 1-.382.265.238.616.382 1 .382h1c.384 0 .735-.144 1-.382.265.238.616.382 1 .382h1a1.5 1.5 0 001.5-1.5v-1c0-.384-.144-.735-.382-1zM9 11.5v-1a.5.5 0 00-.5-.5h-1a.5.5 0 00-.5.5v1a.5.5 0 00.5.5h1a.5.5 0 00.5-.5zM10.5 7h1a.5.5 0 01.5.5v1a.5.5 0 01-.5.5h-1a.5.5 0 01-.5-.5v-1a.5.5 0 01.5-.5zm1-1h-1a.5.5 0 01-.5-.5v-1a.5.5 0 01.5-.5h1a.5.5 0 01.5.5v1a.5.5 0 01-.5.5zm-6 4a.5.5 0 01.5.5v1a.5.5 0 01-.5.5h-1a.5.5 0 01-.5-.5v-1a.5.5 0 01.5-.5h1zM9 4.5a.5.5 0 00-.5-.5h-1a.5.5 0 00-.5.5v1a.5.5 0 00.5.5h1a.5.5 0 00.5-.5v-1zm-3 4v-1a.5.5 0 00-.5-.5h-1a.5.5 0 00-.5.5v1a.5.5 0 00.5.5h1a.5.5 0 00.5-.5z"/></symbol><symbol id="icon-sheet-24"><path fill-rule="evenodd" clip-rule="evenodd" d="M6 5a3 3 0 00-2.236 5A2.989 2.989 0 003 12c0 .768.289 1.47.764 2A3 3 0 006 19h4c.768 0 1.47-.289 2-.764.53.475 1.232.764 2 .764h4a3 3 0 002.236-5c.475-.53.764-1.232.764-2s-.289-1.47-.764-2A3 3 0 0018 5h-4c-.768 0-1.47.289-2 .764A2.989 2.989 0 0010 5H6zm5 3a1 1 0 00-1-1H6a1 1 0 000 2h4a1 1 0 001-1zm2 8a1 1 0 001 1h4a1 1 0 100-2h-4a1 1 0 00-1 1zm-8-4a1 1 0 011-1h4a1 1 0 110 2H6a1 1 0 01-1-1zm1 3h4a1 1 0 110 2H6a1 1 0 110-2zm7-3a1 1 0 011-1h4a1 1 0 110 2h-4a1 1 0 01-1-1zm6-4a1 1 0 01-1 1h-4a1 1 0 110-2h4a1 1 0 011 1z"/></symbol><symbol id="icon-six-dots-16"><path fill-rule="evenodd" clip-rule="evenodd" d="M4 7a1 1 0 100-2 1 1 0 000 2zm4 0a1 1 0 100-2 1 1 0 000 2zm5-1a1 1 0 11-2 0 1 1 0 012 0zm-9 5a1 1 0 100-2 1 1 0 000 2zm5-1a1 1 0 11-2 0 1 1 0 012 0zm3 1a1 1 0 100-2 1 1 0 000 2z"/></symbol><symbol id="icon-sort-16"><path fill-rule="evenodd" clip-rule="evenodd" d="M3 5.5a.5.5 0 01.5-.5h3a.5.5 0 010 1h-3a.5.5 0 01-.5-.5zm0 6a.5.5 0 01.5-.5h9a.5.5 0 010 1h-9a.5.5 0 01-.5-.5zM3.5 8a.5.5 0 000 1h6a.5.5 0 000-1h-6z"/></symbol><symbol id="icon-sprocket-16"><path fill-rule="evenodd" clip-rule="evenodd" d="M6.926 2.07a.5.5 0 10-.966.26l.056.208c.119.444-.131.9-.528 1.13-.398.23-.904.208-1.229-.116l-.152-.153a.5.5 0 10-.707.708l.153.153c.324.324.342.838.113 1.236-.23.397-.684.639-1.127.52l-.21-.056a.5.5 0 10-.258.966l.208.056c.443.118.716.546.715 1.005 0 .459-.271.904-.715 1.023l-.208.056a.5.5 0 10.259.965l.208-.055c.444-.12.901.13 1.13.528.23.397.208.904-.116 1.228l-.153.153a.5.5 0 10.708.707l.153-.153c.324-.325.838-.343 1.236-.113.397.23.639.683.52 1.127l-.056.209a.5.5 0 10.966.259l.056-.209c.118-.443.546-.716 1.005-.715.459 0 .904.272 1.023.715l.056.209a.5.5 0 10.966-.26l-.056-.208c-.12-.443.13-.9.528-1.13.397-.23.904-.208 1.228.116l.153.153a.5.5 0 00.707-.707l-.153-.153c-.325-.325-.343-.839-.113-1.236.23-.398.683-.64 1.127-.52l.209.055a.5.5 0 10.259-.965l-.209-.056c-.443-.119-.716-.547-.715-1.006 0-.459.272-.904.715-1.022l.209-.056a.5.5 0 10-.26-.966l-.208.056c-.443.118-.9-.131-1.13-.529-.23-.397-.208-.904.116-1.228l.153-.152a.5.5 0 00-.707-.707l-.153.153c-.325.324-.839.342-1.236.113-.398-.23-.64-.684-.52-1.127l.056-.21a.5.5 0 10-.966-.258l-.056.208c-.119.443-.547.716-1.006.715-.458 0-.904-.271-1.022-.715l-.056-.208zm3.898 3.097a4.02 4.02 0 00-1.817-1.042 3.982 3.982 0 00-2.047.007 3.982 3.982 0 00-1.81 1.052 4.02 4.02 0 00-1.025 1.8 4 4 0 106.699-1.817zM7.03 8.254a1 1 0 111.932-.517 1 1 0 01-1.932.517zm.448-2.19a2 2 0 101.035 3.864 2 2 0 00-1.035-3.864z"/></symbol><symbol id="icon-sprocket-24"><path fill-rule="evenodd" clip-rule="evenodd" d="M13 4a1 1 0 10-2 0v.241c0 .476-.359.874-.819.998-.46.123-.957-.047-1.195-.459l-.12-.208a1 1 0 10-1.732 1l.121.21c.238.412.132.932-.205 1.268-.336.337-.856.443-1.268.205l-.21-.121a1 1 0 10-1 1.732l.208.12c.412.238.582.736.459 1.195-.124.46-.522.819-.998.819H4a1 1 0 100 2h.24c.477 0 .875.359.999.819.123.46-.047.957-.459 1.195l-.208.12a1 1 0 101 1.732l.21-.121c.412-.238.932-.132 1.268.205.337.336.443.856.205 1.268l-.121.21a1 1 0 101.732 1l.12-.208c.238-.412.736-.582 1.195-.459.46.124.819.522.819.998V20a1 1 0 102 0v-.24c0-.477.359-.875.819-.999.46-.123.957.047 1.195.459l.12.208a1 1 0 101.732-1l-.121-.21c-.238-.412-.132-.932.205-1.268.336-.337.856-.443 1.268-.205l.21.121a1 1 0 101-1.732l-.208-.12c-.412-.238-.582-.736-.459-1.195.124-.46.522-.819.998-.819H20a1 1 0 100-2h-.241c-.476 0-.874-.359-.998-.819-.123-.46.047-.957.459-1.195l.208-.12a1 1 0 10-1-1.732l-.21.121c-.412.238-.932.132-1.268-.205-.337-.336-.443-.856-.205-1.268l.121-.21a1 1 0 10-1.732-1l-.12.208c-.238.412-.736.582-1.195.459-.46-.124-.819-.522-.819-.998V4zm-1 13a5 5 0 110-10 5 5 0 010 10zm-1-5a1 1 0 112 0 1 1 0 01-2 0zm1-3a3 3 0 100 6 3 3 0 000-6z"/></symbol><symbol id="icon-stopwatch-16"><path fill-rule="evenodd" clip-rule="evenodd" d="M6.5 0a.5.5 0 000 1h1v1.02a6 6 0 105.082 2.106l1.272-1.272a.5.5 0 00-.707-.708l-1.273 1.272A5.973 5.973 0 008.5 2.021V1h1a.5.5 0 000-1h-3zM8 3a5 5 0 100 10A5 5 0 008 3zM5.854 5.146a.5.5 0 10-.708.708l2.5 2.5a.5.5 0 10.708-.708l-2.5-2.5z"/></symbol><symbol id="icon-stopwatch-24"><path fill-rule="evenodd" clip-rule="evenodd" d="M9 3a1 1 0 011-1h4a1 1 0 110 2h-1v1.062a7.96 7.96 0 013.906 1.618l.887-.887a1 1 0 111.414 1.414l-.887.887A8 8 0 1111 5.062V4h-1a1 1 0 01-1-1zm3 4a6 6 0 100 12 6 6 0 000-12zM8.793 9.793a1 1 0 011.414 0l2.5 2.5a1 1 0 01-1.414 1.414l-2.5-2.5a1 1 0 010-1.414z"/></symbol><symbol id="icon-stopwatch-filled-16"><path fill-rule="evenodd" clip-rule="evenodd" d="M6.5 0a.5.5 0 000 1h1v1.02a6 6 0 105.082 2.106l1.272-1.272a.5.5 0 00-.708-.708l-1.272 1.272A5.973 5.973 0 008.5 2.021V1h1a.5.5 0 000-1h-3zM4.646 4.646a.5.5 0 01.708 0l3 3a.5.5 0 11-.708.708l-3-3a.5.5 0 010-.708z"/></symbol><symbol id="icon-stopwatch-filled-24"><path fill-rule="evenodd" clip-rule="evenodd" d="M21 12a9 9 0 11-3.958-7.456l1.25-1.251a1 1 0 111.415 1.414l-1.14 1.14A8.969 8.969 0 0121 12zM8.707 7.293a1 1 0 00-1.414 1.414l4 4a1 1 0 001.414-1.414l-4-4z"/></symbol><symbol id="icon-view-16"><path fill-rule="evenodd" clip-rule="evenodd" d="M4 3.5a.5.5 0 00-1 0v3a.5.5 0 001 0v-3zm4 0a.5.5 0 00-1 0v1a.5.5 0 001 0v-1zm4 0a.5.5 0 00-1 0v4a.5.5 0 001 0v-4zm-4 5a.5.5 0 00-1 0v4a.5.5 0 001 0v-4zm-4 2a.5.5 0 00-1 0v2a.5.5 0 001 0v-2zm8 1a.5.5 0 00-1 0v1a.5.5 0 001 0v-1zM6.5 6a.5.5 0 000 1h2a.5.5 0 000-1h-2zm-4 2a.5.5 0 000 1h2a.5.5 0 000-1h-2zm8 1a.5.5 0 000 1h2a.5.5 0 000-1h-2z"/></symbol><symbol id="icon-view-24"><path fill-rule="evenodd" clip-rule="evenodd" d="M6 3a1 1 0 011 1v6a1 1 0 11-2 0V4a1 1 0 011-1zM3 13a1 1 0 011-1h4a1 1 0 110 2H4a1 1 0 01-1-1zm3 2a1 1 0 011 1v4a1 1 0 11-2 0v-4a1 1 0 011-1zm6-12a1 1 0 011 1v2a1 1 0 11-2 0V4a1 1 0 011-1zM9 9a1 1 0 011-1h4a1 1 0 110 2h-4a1 1 0 01-1-1zm3 2a1 1 0 011 1v8a1 1 0 11-2 0v-8a1 1 0 011-1zm7-7a1 1 0 10-2 0v8a1 1 0 102 0V4zm-3 10a1 1 0 100 2h4a1 1 0 100-2h-4zm3 4a1 1 0 10-2 0v2a1 1 0 102 0v-2z"/></symbol><symbol id="icon-world-16"><path fill-rule="evenodd" clip-rule="evenodd" d="M3.749 5.367A4.997 4.997 0 018 3c1.07 0 2.059.335 2.872.906a1.264 1.264 0 01-.246.085c-.287.069-.62.071-1.011.071h-.04c-.347 0-.77 0-1.13.107-.198.06-.4.157-.573.323-.176.17-.294.385-.357.637-.128.511.009.946.278 1.293.249.32.609.563.938.76.147.09.301.175.448.258l.063.035c.169.095.327.185.474.277.304.19.507.36.618.525.09.137.09.225.067.316-.034.128-.122.276-.275.495l-.058.082c-.129.181-.292.412-.402.654-.137.302-.215.672-.078 1.084.151.454.438.759.76 1.002.122.091.258.18.4.268A4.975 4.975 0 018 13a4.974 4.974 0 01-2.778-.842.867.867 0 01-.01-.329.532.532 0 01.165-.302c.103-.097.296-.214.659-.287.55-.11.976-.397 1.234-.811.253-.407.316-.891.234-1.356-.164-.927-.907-1.839-2.096-2.235-.927-.309-1.326-.75-1.504-1.063a1.325 1.325 0 01-.155-.408zm-.534 1.177A5 5 0 003 8c0 1.298.495 2.481 1.307 3.37.075-.196.196-.394.383-.57.273-.257.653-.44 1.15-.54.309-.062.484-.205.58-.36.102-.162.146-.387.1-.653-.095-.533-.555-1.169-1.428-1.46-.949-.316-1.53-.78-1.877-1.243zm8.354 4.958A4.982 4.982 0 0013 8c0-1.318-.51-2.517-1.343-3.41-.244.192-.52.306-.796.373-.415.1-.86.1-1.22.1h-.026c-.401 0-.68.004-.883.065a.396.396 0 00-.167.085.31.31 0 00-.08.158.459.459 0 00.098.437c.127.163.347.328.663.517.133.08.273.159.421.242l.065.036c.169.095.346.196.516.302.33.207.685.468.918.818.253.379.296.763.202 1.123-.085.323-.276.605-.423.816l-.068.096a3.087 3.087 0 00-.3.478c-.067.15-.075.252-.04.356.066.199.19.351.412.519.17.127.358.237.593.375l.027.016zM8 2a5.998 5.998 0 00-6 6c0 2.009.987 3.787 2.501 4.875A5.975 5.975 0 008 14a5.98 5.98 0 003.969-1.5A5.987 5.987 0 0014 8a5.987 5.987 0 00-2.031-4.5A5.98 5.98 0 008 2z"/></symbol><symbol id="icon-world-24"><path fill-rule="evenodd" clip-rule="evenodd" d="M6.107 8.22A6.994 6.994 0 0112 5c1.284 0 2.486.345 3.52.948-.329.049-.71.052-1.171.052h-.069c-.495 0-1.148 0-1.71.167a2.286 2.286 0 00-.946.534 2.168 2.168 0 00-.594 1.056c-.21.836.017 1.553.454 2.115.395.507.956.883 1.439 1.173.218.13.445.258.658.378l.092.051c.245.138.47.266.678.397.434.272.69.492.817.684.088.132.075.18.06.239-.035.133-.135.311-.36.633l-.08.113c-.186.262-.442.623-.613 1.001-.218.481-.351 1.092-.124 1.775.243.73.704 1.215 1.2 1.589.075.056.154.112.235.167A6.964 6.964 0 0112 19a6.963 6.963 0 01-3.791-1.114.908.908 0 01.005-.267.501.501 0 01.157-.29c.105-.098.334-.25.825-.348.866-.174 1.554-.63 1.973-1.304.41-.659.507-1.434.378-2.163-.257-1.457-1.415-2.858-3.23-3.463C7.024 9.621 6.5 9.018 6.277 8.63c-.09-.16-.142-.3-.17-.41zm-.936 2.235A7.028 7.028 0 005 12a6.97 6.97 0 001.565 4.411 2.53 2.53 0 01.434-.537c.442-.417 1.046-.703 1.805-.855.384-.076.571-.244.667-.4.106-.168.165-.425.107-.758-.118-.668-.71-1.517-1.894-1.912-1.156-.386-1.961-.921-2.513-1.494zm11.972 6.294A6.972 6.972 0 0019 12a6.97 6.97 0 00-1.72-4.597 3.36 3.36 0 01-1.055.444C15.59 8 14.915 8 14.396 8h-.047c-.597 0-.958.009-1.207.083-.1.03-.128.057-.13.06a.057.057 0 00-.011.014.355.355 0 00-.03.086c-.042.164-.018.26.092.4.152.196.435.414.889.687.191.115.39.227.606.348l.095.053c.245.137.508.287.761.445.488.306 1.046.71 1.418 1.27.412.617.487 1.256.33 1.854-.136.523-.443.97-.655 1.273l-.1.143c-.195.276-.324.46-.41.65-.08.175-.07.25-.048.318.073.22.21.4.505.623.201.15.419.283.689.442zM12 3a8.997 8.997 0 00-9 9 8.99 8.99 0 003.752 7.312A8.964 8.964 0 0012 21a8.97 8.97 0 005.953-2.25A8.98 8.98 0 0021 12a8.98 8.98 0 00-3.047-6.75A8.97 8.97 0 0012 3z"/></symbol><symbol id="icon-x-16"><path fill-rule="evenodd" clip-rule="evenodd" d="M12.854 3.854a.5.5 0 00-.708-.708L8 7.293 3.854 3.146a.5.5 0 10-.708.708L7.293 8l-4.147 4.146a.5.5 0 00.708.708L8 8.707l4.146 4.147a.5.5 0 00.708-.708L8.707 8l4.147-4.146z"/></symbol><symbol id="icon-x-24"><path fill-rule="evenodd" clip-rule="evenodd" d="M18.707 6.707a1 1 0 00-1.414-1.414L12 10.586 6.707 5.293a1 1 0 00-1.414 1.414L10.586 12l-5.293 5.293a1 1 0 101.414 1.414L12 13.414l5.293 5.293a1 1 0 001.414-1.414L13.414 12l5.293-5.293z"/></symbol></svg>